<svg xmlns="http://www.w3.org/2000/svg" width="60" height="50" viewBox="0 0 60 50">
    <defs>
        <style>
            .cls-1{fill:none}.cls-2{fill:#a9cac8}.cls-3{fill:#5386a5}.cls-4{fill:#123a5f}
        </style>
    </defs>
    <g id="engagement_icon" data-name="engagement icon" transform="translate(-943 -3061)">
        <g id="engagement_engagement" transform="translate(943 3061)">
            <g id="icon" transform="translate(-2.05 -.555)">
                <path id="Path_3169" d="M28.075 17.887a16.441 16.441 0 0 1 2.344-1.574c.341-.187.693-.352 1.045-.517a17.607 17.607 0 0 1 2.014-.759 10.553 10.553 0 0 0-1.778-1.871 13.613 13.613 0 0 0-8.584-2.916 13.646 13.646 0 0 0-8.639 2.916 9.024 9.024 0 0 0-3.543 7 9.024 9.024 0 0 0 3.543 7A13.205 13.205 0 0 0 17.17 29a.715.715 0 0 1 .374.9 4.4 4.4 0 0 1-2.333 2.41 7.7 7.7 0 0 0 1.992.264 6.5 6.5 0 0 0 4.6-2.333.7.7 0 0 1 .539-.241H23.9a10.762 10.762 0 0 1-.4-2.9 11.852 11.852 0 0 1 4.578-9.211z" class="cls-1" data-name="Path 3169" transform="translate(.137 .138)"/>
                <path id="Path_3170" d="M23.249 30.141h-.77a.7.7 0 0 0-.539.242 6.5 6.5 0 0 1-4.6 2.333 7.7 7.7 0 0 1-1.992-.264 4.4 4.4 0 0 0 2.333-2.41.715.715 0 0 0-.374-.9 13.205 13.205 0 0 1-2.7-1.838 9.024 9.024 0 0 1-3.543-7 9.024 9.024 0 0 1 3.543-7 13.646 13.646 0 0 1 8.639-2.916 13.613 13.613 0 0 1 8.586 2.912 10.553 10.553 0 0 1 1.783 1.871c.5-.154.99-.3 1.5-.407a11.863 11.863 0 0 0-2.366-2.586A15.065 15.065 0 0 0 23.2 8.88a15.1 15.1 0 0 0-9.552 3.3A10.476 10.476 0 0 0 9.57 20.3a10.476 10.476 0 0 0 4.083 8.121 17.057 17.057 0 0 0 2.322 1.684 3.07 3.07 0 0 1-1.695 1.177 1.21 1.21 0 0 0-.187 2.3 9.123 9.123 0 0 0 3.2.583 7.923 7.923 0 0 0 5.449-2.565h1.8a11.654 11.654 0 0 1-.506-1.431z" class="cls-2" data-name="Path 3170"/>
                <path id="Path_3171" d="M48.644 17.523a15.912 15.912 0 0 0-3.7-2.2c-.4-.165-.792-.319-1.2-.462a18.18 18.18 0 0 0-5.964-.99 18.707 18.707 0 0 0-3.951.429c-.506.11-1 .253-1.5.407a17.607 17.607 0 0 0-2.014.759c-.352.165-.7.33-1.045.517a16.441 16.441 0 0 0-2.344 1.574 11.852 11.852 0 0 0-4.622 9.189 10.762 10.762 0 0 0 .407 2.905 11.654 11.654 0 0 0 .506 1.431c.143.33.3.671.473.99a10.477 10.477 0 0 0 .572.957 13.205 13.205 0 0 0 2.663 2.905 15.957 15.957 0 0 0 6.79 3.18 18.8 18.8 0 0 0 3.037.385h1.508a1.332 1.332 0 0 1 .869.55 7.582 7.582 0 0 0 .781.792 7.208 7.208 0 0 0 2.96 1.376 9.354 9.354 0 0 0 3.455.143c.814-.132 2.2-.385 2.531-1.255a1 1 0 0 0 0-.759 1.64 1.64 0 0 0-1.1-.891c-.594-.2-1.838-.286-1.86-1.1a1.012 1.012 0 0 1 .429-.77c.715-.561 1.53-.979 2.2-1.541a12.908 12.908 0 0 0 2.586-2.773c.231-.33.462-.671.66-1.023a10.772 10.772 0 0 0 .7-1.486v-.1c.121-.319.22-.638.319-.968a11 11 0 0 0 .4-2.938 11.852 11.852 0 0 0-4.546-9.233zm2.322 11.6a10.014 10.014 0 0 1-1.4 2.916 8.98 8.98 0 0 1-.55.726c0 .077-.121.132-.176.2a13.866 13.866 0 0 1-1.717 1.695c-1.1.913-3.015 1.6-3.3 3.213a2.718 2.718 0 0 0 .617 2.027 3.664 3.664 0 0 0 .638.528h-.286a5.986 5.986 0 0 1-3.521-1.1 7.836 7.836 0 0 1-.7-.638 9.212 9.212 0 0 0-.632-.69 2.531 2.531 0 0 0-1.618-.55h-.242a20.424 20.424 0 0 1-3.962-.374 14.064 14.064 0 0 1-5.953-2.784 11.51 11.51 0 0 1-1.794-1.816 9.5 9.5 0 0 1-.66-.858 8.507 8.507 0 0 1-.44-.825 8.672 8.672 0 0 1-.561-1.376 8.8 8.8 0 0 1-.429-2.674 9.9 9.9 0 0 1 3.906-7.643 13.976 13.976 0 0 1 2.641-1.684c.33-.154.671-.308 1.012-.44s1-.363 1.53-.517a13.2 13.2 0 0 1 1.431-.33 15.748 15.748 0 0 1 2.982-.275 16.793 16.793 0 0 1 4.171.528c.385.1.77.22 1.1.341a13.855 13.855 0 0 1 4.292 2.377 9.838 9.838 0 0 1 3.9 7.7 9.354 9.354 0 0 1-.275 2.322z" class="cls-3" data-name="Path 3171" transform="translate(1.28 .501)"/>
                <circle id="Ellipse_337" cx="1.442" cy="1.442" r="1.442" class="cls-4" data-name="Ellipse 337" transform="translate(32.58 25.508)"/>
                <circle id="Ellipse_338" cx="1.442" cy="1.442" r="1.442" class="cls-4" data-name="Ellipse 338" transform="translate(37.929 25.508)"/>
                <circle id="Ellipse_339" cx="1.442" cy="1.442" r="1.442" class="cls-4" data-name="Ellipse 339" transform="translate(43.277 25.508)"/>
            </g>
            <g id="Layer_2" data-name="Layer 2">
                <path id="Rectangle_958" d="M0 0h60v50H0z" class="cls-1" data-name="Rectangle 958"/>
            </g>
        </g>
    </g>
</svg>
