<svg xmlns="http://www.w3.org/2000/svg" xmlns:xlink="http://www.w3.org/1999/xlink" width="950.28" height="999.353" viewBox="0 0 950.28 999.353"><defs><style>.a,.ae,.d,.f,.fk,.j,.k,.l{fill:none;}.b{clip-path:url(#a);}.ag,.ah,.ai,.c{fill:#545456;}.d{stroke:#fff;stroke-width:4.962px;}.ae,.d,.f,.j,.k,.l{stroke-miterlimit:10;}.ao,.ap,.aq,.ar,.as,.at,.au,.av,.aw,.ax,.ay,.az,.ba,.bb,.bc,.bd,.be,.bf,.bg,.bh,.bi,.bj,.bk,.bl,.bm,.bn,.bo,.bp,.bq,.br,.bs,.bt,.bu,.bv,.bw,.bx,.by,.bz,.ca,.cb,.cc,.cd,.ce,.cf,.cg,.ch,.ci,.cj,.ck,.cl,.cm,.cn,.co,.cp,.cq,.cr,.cs,.ct,.cu,.cv,.cw,.cx,.cy,.cz,.da,.db,.dc,.dd,.de,.df,.dg,.dh,.di,.dj,.dk,.dl,.dm,.dn,.do,.dp,.dq,.dr,.ds,.dt,.du,.dv,.dw,.dx,.dy,.dz,.e,.ea,.eb,.ec,.ed,.ee,.ef,.eg,.eh,.ei,.ej,.ek,.el,.em,.en,.eo,.ep,.eq,.er,.es,.et,.eu,.ev,.ew,.ex,.ey,.ez,.fa,.fb,.fc,.fd,.fe,.ff,.fg{fill:#fff;}.f,.fk,.j{stroke:#002941;}.fh,.fl,.g,.m,.n,.o,.p,.q,.r,.s,.t{fill:#002941;}.h{fill:#29b07d;}.i{fill:#067e92;}.ae,.j,.k,.l{stroke-width:2px;}.k{stroke:#545456;}.l{stroke:#067e92;}.m{font-size:22px;}.aa,.ab,.ac,.ad,.ag,.ah,.ai,.aj,.ak,.al,.am,.an,.ao,.ap,.aq,.ar,.as,.at,.au,.av,.aw,.ax,.ay,.az,.ba,.bb,.bc,.bd,.be,.bf,.bg,.bh,.bi,.bj,.bk,.bl,.bm,.bn,.bo,.bp,.bq,.br,.bs,.bt,.bu,.bv,.bw,.bx,.by,.bz,.ca,.cb,.cc,.cd,.ce,.cf,.cg,.ch,.ci,.cj,.ck,.cl,.cm,.cn,.co,.cp,.cq,.cr,.cs,.ct,.cu,.cv,.cw,.cx,.cy,.cz,.da,.db,.dc,.dd,.de,.df,.dg,.dh,.di,.dj,.dk,.dl,.dm,.dn,.do,.dp,.dq,.dr,.ds,.dt,.du,.dv,.dw,.dx,.dy,.dz,.ea,.eb,.ec,.ed,.ee,.ef,.eg,.eh,.ei,.ej,.ek,.el,.em,.en,.eo,.ep,.eq,.er,.es,.et,.eu,.ev,.ew,.ex,.ey,.ez,.fa,.fb,.fc,.fd,.fe,.ff,.fg,.fh,.fl,.m,.n,.o,.p,.q,.r,.s,.t,.u,.v,.w,.x,.y,.z{font-family:Karla-Bold, Karla;font-weight:700;}.n{font-size:22px;}.o,.x{font-size:22px;}.ad,.p{font-size:22px;}.q{font-size:22px;}.r,.v{font-size:22px;}.s,.z{font-size:22px;}.t{font-size:22px;}.aa,.ab,.ac,.ad,.af,.u,.v,.w,.x,.y,.z{fill:#2ab07d;}.u{font-size:22px;}.w{font-size:22px;}.y{font-size:22px;}.aa{font-size:22px;}.ab{font-size:22px;}.ac{font-size:22px;}.ae{stroke:#2ab07d;}.ag{font-size:22px;}.ah{font-size:22px;}.ai{font-size:22px;}.aj,.ak,.al,.am,.an{fill:#057e91;}.aj{font-size:22px;}.ak{font-size:22px;}.al{font-size:22px;}.am{font-size:22px;}.an{font-size:22px;}.ao{font-size:20px;}.ap{font-size:20px;}.aq{font-size:20px;}.ar{font-size:20px;}.as{font-size:20px;}.at{font-size:20px;}.au{font-size:20px;}.av{font-size:20px;}.aw{font-size:20px;}.ax{font-size:20px;}.ay{font-size:20px;}.az{font-size:20px;}.ba{font-size:20px;}.bb{font-size:20px;}.bc{font-size:20px;}.bd{font-size:20px;}.be{font-size:20px;}.bf{font-size:20px;}.bg{font-size:20px;}.bh{font-size:20px;}.bi{font-size:20px;}.bj{font-size:20px;}.bk{font-size:20px;}.bl{font-size:20px;}.bm{font-size:20px;}.bn{font-size:20px;}.bo{font-size:20px;}.bp{font-size:20px;}.bq{font-size:20px;}.br{font-size:20px;}.bs{font-size:20px;}.bt{font-size:20px;}.bu{font-size:20px;}.bv{font-size:20px;}.bw{font-size:20px;}.bx{font-size:20px;}.by{font-size:20px;}.bz{font-size:20px;}.ca{font-size:20px;}.cb{font-size:20px;}.cc{font-size:20px;}.cd{font-size:20px;}.ce{font-size:20px;}.cf{font-size:20px;}.cg{font-size:20px;}.ch{font-size:20px;}.ci{font-size:20px;}.cj{font-size:20px;}.ck{font-size:20px;}.cl{font-size:20px;}.cm{font-size:20px;}.cn{font-size:20px;}.co{font-size:20px;}.cp{font-size:20px;}.cq{font-size:20px;}.cr{font-size:20px;}.cs{font-size:20px;}.ct{font-size:20px;}.cu{font-size:20px;}.cv{font-size:20px;}.cw{font-size:20px;}.cx{font-size:20px;}.cy{font-size:20px;}.cz{font-size:20px;}.da{font-size:20px;}.db{font-size:20px;}.dc{font-size:20px;}.dd{font-size:20px;}.de{font-size:20px;}.df{font-size:20px;}.dg{font-size:20px;}.dh{font-size:20px;}.di{font-size:20px;}.dj{font-size:20px;}.dk{font-size:20px;}.dl{font-size:20px;}.dm{font-size:20px;}.dn{font-size:20px;}.do{font-size:20px;}.dp{font-size:20px;}.dq{font-size:20px;}.dr{font-size:20px;}.ds{font-size:20px;}.dt{font-size:20px;}.du{font-size:20px;}.dv{font-size:20px;}.dw{font-size:20px;}.dx{font-size:20px;}.dy{font-size:20px;}.dz{font-size:20px;}.ea{font-size:20px;}.eb{font-size:20px;}.ec{font-size:20px;}.ed{font-size:20px;}.ee{font-size:20px;}.ef{font-size:20px;}.eg{font-size:20px;}.eh{font-size:20px;}.ei{font-size:20px;}.ej{font-size:20px;}.ek{font-size:20px;}.el{font-size:20px;}.em{font-size:20px;}.en{font-size:20px;}.eo{font-size:20px;}.ep{font-size:20px;}.eq{font-size:20px;}.er{font-size:20px;}.es{font-size:20px;}.et{font-size:20px;}.eu{font-size:20px;}.ev{font-size:20px;}.ew{font-size:20px;}.ex{font-size:20px;}.ey{font-size:20px;}.ez{font-size:20px;}.fa{font-size:20px;}.fb{font-size:20px;}.fc{font-size:20px;}.fd{font-size:20px;}.fe{font-size:20px;}.ff{font-size:20px;}.fg{font-size:20px;}.fh{font-size:30px;}.fi{letter-spacing:0.087em;}.fj{letter-spacing:0.079em;}.fk{stroke-width:0.983px;}.fl{font-size:22.292px;}.fm{letter-spacing:0.05em;}.fn{letter-spacing:0.049em;}</style><clipPath id="a"><rect class="a" width="950.28" height="999.353"/></clipPath></defs><g class="b"><path class="c" d="M478.523,533.172,194.4,194.569C277.432,124.9,370.135,91.158,478.523,91.158Z"/><path class="d" d="M478.523,533.172,194.4,194.569C277.432,124.9,370.135,91.158,478.523,91.158Z"/><path class="c" d="M478.523,533.172l-435.3-76.755C62.045,349.675,111.372,264.24,194.4,194.569Z"/><path class="d" d="M478.523,533.172l-435.3-76.755C62.045,349.675,111.372,264.24,194.4,194.569Z"/><path class="c" d="M478.523,533.172,95.727,754.179c-54.194-93.867-71.324-191.02-52.5-297.762Z"/><path class="d" d="M478.523,533.172,95.727,754.179c-54.194-93.867-71.324-191.02-52.5-297.762Z"/><path class="c" d="M478.523,533.172,327.345,948.529C225.494,911.458,149.922,848.046,95.727,754.179Z"/><path class="d" d="M478.523,533.172,327.345,948.529C225.494,911.458,149.922,848.046,95.727,754.179Z"/><path class="c" d="M478.523,533.172,629.7,948.529c-101.852,37.071-200.5,37.071-302.356,0Z"/><path class="d" d="M478.523,533.172,629.7,948.529c-101.852,37.071-200.5,37.071-302.356,0Z"/><path class="c" d="M478.523,533.172,861.318,754.179C807.124,848.046,731.552,911.458,629.7,948.529Z"/><path class="d" d="M478.523,533.172,861.318,754.179C807.124,848.046,731.552,911.458,629.7,948.529Z"/><path class="c" d="M478.523,533.172l435.3-76.755c18.821,106.742,1.691,203.9-52.5,297.762Z"/><path class="d" d="M478.523,533.172l435.3-76.755c18.821,106.742,1.691,203.9-52.5,297.762Z"/><path class="c" d="M478.523,533.172l284.121-338.6C845.674,264.24,895,349.675,913.822,456.417Z"/><path class="d" d="M478.523,533.172l284.121-338.6C845.674,264.24,895,349.675,913.822,456.417Z"/><path class="c" d="M478.523,533.172V91.158c108.388,0,201.091,33.741,284.121,103.411Z"/><path class="d" d="M478.523,533.172V91.158c108.388,0,201.091,33.741,284.121,103.411Z"/><path class="e" d="M867.716,533.745c0,214.945-174.248,389.193-389.193,389.193S89.33,748.69,89.33,533.745,263.578,144.552,478.523,144.552,867.716,318.8,867.716,533.745"/><path class="e" d="M478.383,309.329a216.618,216.618,0,0,0-153.654,63.646L478.383,526.63Z"/><path class="f" d="M478.383,309.329a216.618,216.618,0,0,0-153.654,63.646L478.383,526.63Z"/><path class="e" d="M324.729,372.975A216.62,216.62,0,0,0,261.083,526.63h217.3Z"/><path class="f" d="M324.729,372.975A216.62,216.62,0,0,0,261.083,526.63h217.3Z"/><path class="e" d="M261.083,526.629a216.62,216.62,0,0,0,63.646,153.655L478.383,526.629Z"/><path class="f" d="M261.083,526.629a216.62,216.62,0,0,0,63.646,153.655L478.383,526.629Z"/><path class="e" d="M324.729,680.284A216.62,216.62,0,0,0,478.383,743.93v-217.3Z"/><path class="f" d="M324.729,680.284A216.62,216.62,0,0,0,478.383,743.93v-217.3Z"/><path class="e" d="M478.383,743.93a216.621,216.621,0,0,0,153.655-63.646L478.383,526.629Z"/><path class="f" d="M478.383,743.93a216.621,216.621,0,0,0,153.655-63.646L478.383,526.629Z"/><path class="e" d="M632.038,680.284a216.62,216.62,0,0,0,63.646-153.655h-217.3Z"/><path class="f" d="M632.038,680.284a216.62,216.62,0,0,0,63.646-153.655h-217.3Z"/><path class="e" d="M478.383,526.629h217.3a216.62,216.62,0,0,0-63.646-153.655Z"/><path class="f" d="M478.383,526.629h217.3a216.62,216.62,0,0,0-63.646-153.655Z"/><path class="e" d="M632.038,372.975a216.62,216.62,0,0,0-153.655-63.646v217.3Z"/><path class="f" d="M632.038,372.975a216.62,216.62,0,0,0-153.655-63.646v217.3Z"/><path class="c" d="M478.383,309.329V197.955q-136.141,0-232.408,96.267l78.754,78.753a216.618,216.618,0,0,1,153.654-63.646"/><path class="d" d="M478.383,309.329V197.955q-136.141,0-232.408,96.267l78.754,78.753A216.618,216.618,0,0,1,478.383,309.329Z"/><path class="g" d="M324.729,372.975l-78.753-78.753q-96.267,96.266-96.267,232.408H261.083a216.62,216.62,0,0,1,63.646-153.655"/><path class="d" d="M324.729,372.975l-78.753-78.753q-96.267,96.266-96.267,232.408H261.083A216.62,216.62,0,0,1,324.729,372.975Z"/><path class="g" d="M261.083,526.629H149.709q0,136.141,96.267,232.408l78.753-78.753a216.62,216.62,0,0,1-63.646-153.655"/><path class="d" d="M261.083,526.629H149.709q0,136.141,96.267,232.408l78.753-78.753A216.62,216.62,0,0,1,261.083,526.629Z"/><path class="g" d="M324.729,680.284l-78.753,78.753Q342.243,855.3,478.383,855.3V743.93a216.62,216.62,0,0,1-153.654-63.646"/><path class="d" d="M324.729,680.284l-78.753,78.753Q342.243,855.3,478.383,855.3V743.93A216.62,216.62,0,0,1,324.729,680.284Z"/><path class="h" d="M478.383,743.93V855.3q136.141,0,232.408-96.267l-78.753-78.753A216.621,216.621,0,0,1,478.383,743.93"/><path class="d" d="M478.383,743.93V855.3q136.141,0,232.408-96.267l-78.753-78.753A216.621,216.621,0,0,1,478.383,743.93Z"/><path class="i" d="M695.684,526.629a216.62,216.62,0,0,1-63.646,153.655l78.753,78.753q96.266-96.267,96.267-232.408Z"/><path class="d" d="M695.684,526.629a216.62,216.62,0,0,1-63.646,153.655l78.753,78.753q96.266-96.267,96.267-232.408Z"/><path class="i" d="M695.684,526.629H807.058q0-136.142-96.267-232.408l-78.753,78.753a216.62,216.62,0,0,1,63.646,153.655"/><path class="d" d="M695.684,526.629H807.058q0-136.142-96.267-232.408l-78.753,78.753A216.62,216.62,0,0,1,695.684,526.629Z"/><path class="i" d="M632.038,372.975l78.753-78.753q-96.267-96.267-232.408-96.267V309.329a216.62,216.62,0,0,1,153.655,63.646"/><path class="d" d="M632.038,372.975l78.753-78.753q-96.267-96.267-232.408-96.267V309.329A216.62,216.62,0,0,1,632.038,372.975Z"/><path class="e" d="M621.488,526.629a143.1,143.1,0,1,1-143.1-143.1,143.1,143.1,0,0,1,143.1,143.1"/><circle class="f" cx="143.105" cy="143.105" r="143.105" transform="translate(334.565 384.242) rotate(-0.286)"/><path class="j" d="M474.563,868.313c-186.8-2.048-337.592-154.11-337.592-341.391a340.3,340.3,0,0,1,97.373-238.761"/><rect class="g" width="13" height="2" transform="matrix(0.033, -0.999, 0.999, 0.033, 473.349, 874.752)"/><rect class="g" width="2" height="13" transform="translate(228.936 284.455) rotate(-46.803)"/><path class="k" d="M474.643,185.53a341.23,341.23,0,0,0-94.27,14.257L370.9,171.3c33.806-10.023,65.772-15.244,102.74-15.336"/><rect class="c" width="2" height="13" transform="matrix(1, -0.026, 0.026, 1, 473.478, 179.074)"/><rect class="c" width="2" height="13" transform="matrix(1, -0.018, 0.018, 1, 472.523, 149.497)"/><path class="l" d="M482.407,185.445a340.3,340.3,0,0,1,237.6,99.976c132.51,132.51,133.324,346.845,2.444,480.361"/><rect class="i" width="13" height="2" transform="translate(481.199 191.932) rotate(-88.165)"/><rect class="i" width="2" height="13" transform="translate(717.006 762.05) rotate(-46.844)"/></g><text class="m" transform="translate(115.572 599.965) rotate(79.189)"><tspan x="0" y="0">G</tspan></text><text class="n" transform="translate(118.331 614.443) rotate(76.9)"><tspan x="0" y="0">O</tspan></text><text class="o" transform="translate(121.719 628.943) rotate(74.703)"><tspan x="0" y="0">V</tspan></text><text class="p" transform="translate(125.228 641.766) rotate(72.639)"><tspan x="0" y="0">E</tspan></text><text class="q" transform="translate(129.134 654.283) rotate(70.446)"><tspan x="0" y="0">R</tspan></text><text class="m" transform="translate(133.981 667.964) rotate(67.979)"><tspan x="0" y="0">N</tspan></text><text class="r" transform="translate(140.065 682.929) rotate(65.515)"><tspan x="0" y="0">A</tspan></text><text class="s" transform="translate(145.929 695.836) rotate(63.028)"><tspan x="0" y="0">N</tspan></text><text class="t" transform="matrix(0.492, 0.87, -0.87, 0.492, 153.301, 710.257)"><tspan x="0" y="0">C</tspan></text><text class="m" transform="translate(160.35 722.687) rotate(58.229)"><tspan x="0" y="0">E</tspan></text><text class="u" transform="matrix(0.986, -0.169, 0.169, 0.986, 535.221, 898.292)"><tspan x="0" y="0">E</tspan></text><text class="v" transform="translate(547.807 896.164) rotate(-11.927)"><tspan x="0" y="0">N</tspan></text><text class="w" transform="matrix(0.97, -0.245, 0.245, 0.97, 563.109, 892.909)"><tspan x="0" y="0">V</tspan></text><text class="x" transform="translate(575.968 889.619) rotate(-15.702)"><tspan x="0" y="0">I</tspan></text><text class="x" transform="matrix(0.955, -0.297, 0.297, 0.955, 582.3, 887.896)"><tspan x="0" y="0">R</tspan></text><text class="w" transform="matrix(0.942, -0.335, 0.335, 0.942, 595.715, 883.728)"><tspan x="0" y="0">O</tspan></text><text class="y" transform="translate(609.739 878.76) rotate(-21.926)"><tspan x="0" y="0">N</tspan></text><text class="z" transform="translate(624.249 872.966) rotate(-24.63)"><tspan x="0" y="0">M</tspan></text><text class="z" transform="matrix(0.89, -0.456, 0.456, 0.89, 641.623, 864.927)"><tspan x="0" y="0">E</tspan></text><text class="aa" transform="translate(653.031 859.116) rotate(-29.347)"><tspan x="0" y="0">N</tspan></text><text class="ab" transform="matrix(0.853, -0.522, 0.522, 0.853, 666.671, 851.407)"><tspan x="0" y="0">T</tspan></text><text class="ac" transform="translate(675.72 845.907) rotate(-33.285)"><tspan x="0" y="0">A</tspan></text><text class="ad" transform="translate(687.134 838.387) rotate(-35.185)"><tspan x="0" y="0">L</tspan></text><g class="b"><path class="ae" d="M717.037,770.366a340.281,340.281,0,0,1-235.058,97.448"/><rect class="af" width="2" height="13.001" transform="matrix(0.729, -0.684, 0.684, 0.729, 711.845, 766.291)"/><rect class="af" width="2" height="13" transform="translate(480.774 861.327) rotate(-1.805)"/></g><text class="ag" transform="translate(326.637 212.774) rotate(-25.088)"><tspan x="0" y="0">E</tspan></text><text class="ah" transform="matrix(0.921, -0.39, 0.39, 0.921, 338.171, 207.359)"><tspan x="0" y="0">S</tspan></text><text class="ai" transform="translate(350.964 201.934) rotate(-20.617)"><tspan x="0" y="0">G</tspan></text><text class="aj" transform="translate(792.834 360.59) rotate(62.406)"><tspan x="0" y="0">S</tspan></text><text class="ak" transform="translate(799.27 372.876) rotate(64.724)"><tspan x="0" y="0">O</tspan></text><text class="al" transform="translate(805.617 386.335) rotate(67.043)"><tspan x="0" y="0">C</tspan></text><text class="am" transform="matrix(0.363, 0.932, -0.932, 0.363, 810.973, 399.109)"><tspan x="0" y="0">I</tspan></text><text class="ak" transform="matrix(0.336, 0.942, -0.942, 0.336, 813.421, 405.245)"><tspan x="0" y="0">A</tspan></text><text class="an" transform="translate(817.989 418.099) rotate(72.316)"><tspan x="0" y="0">L</tspan></text><text class="ao" transform="translate(315.215 298.823) rotate(-34.978)"><tspan x="0" y="0">R</tspan></text><text class="ap" transform="matrix(0.844, -0.536, 0.536, 0.844, 325.636, 291.542)"><tspan x="0" y="0">E</tspan></text><text class="aq" transform="translate(335.412 285.324) rotate(-29.791)"><tspan x="0" y="0">S</tspan></text><text class="ar" transform="matrix(0.889, -0.457, 0.457, 0.889, 346.376, 279.059)"><tspan x="0" y="0">P</tspan></text><text class="as" transform="translate(356.553 273.796) rotate(-24.52)"><tspan x="0" y="0">O</tspan></text><text class="at" transform="translate(368.838 268.178) rotate(-21.537)"><tspan x="0" y="0">N</tspan></text><text class="ao" transform="translate(382.019 262.993) rotate(-18.651)"><tspan x="0" y="0">S</tspan></text><text class="au" transform="translate(394.036 258.997) rotate(-16.639)"><tspan x="0" y="0">I</tspan></text><text class="av" transform="translate(399.743 257.226) rotate(-14.607)"><tspan x="0" y="0">B</tspan></text><text class="aw" transform="translate(412.153 254.022) rotate(-12.176)"><tspan x="0" y="0">L</tspan></text><text class="ao" transform="matrix(0.985, -0.172, 0.172, 0.985, 421.677, 251.946)"><tspan x="0" y="0">E</tspan></text><text class="ax" transform="matrix(0.872, -0.489, 0.489, 0.872, 267.537, 184.386)"><tspan x="0" y="0">D</tspan></text><text class="ay" transform="translate(279.449 177.761) rotate(-27.944)"><tspan x="0" y="0">I</tspan></text><text class="az" transform="translate(284.759 174.903) rotate(-26.721)"><tspan x="0" y="0">R</tspan></text><text class="ba" transform="translate(296.194 169.155) rotate(-25.188)"><tspan x="0" y="0">E</tspan></text><text class="bb" transform="translate(306.725 164.195) rotate(-23.703)"><tspan x="0" y="0">C</tspan></text><text class="aq" transform="translate(318.27 159.138) rotate(-22.299)"><tspan x="0" y="0">T</tspan></text><text class="bc" transform="translate(328.075 155.142) rotate(-21.356)"><tspan x="0" y="0"> </tspan></text><text class="bd" transform="matrix(0.937, -0.349, 0.349, 0.937, 332.728, 153.302)"><tspan x="0" y="0">L</tspan></text><text class="be" transform="matrix(0.945, -0.328, 0.328, 0.945, 341.904, 149.867)"><tspan x="0" y="0">E</tspan></text><text class="bf" transform="matrix(0.954, -0.301, 0.301, 0.954, 352.877, 146.036)"><tspan x="0" y="0">N</tspan></text><text class="bg" transform="matrix(0.963, -0.271, 0.271, 0.963, 366.463, 141.745)"><tspan x="0" y="0">D</tspan></text><text class="at" transform="matrix(0.968, -0.249, 0.249, 0.968, 379.603, 138.087)"><tspan x="0" y="0">I</tspan></text><text class="bh" transform="matrix(0.974, -0.225, 0.225, 0.974, 385.42, 136.537)"><tspan x="0" y="0">N</tspan></text><text class="bi" transform="translate(399.277 133.331) rotate(-11.035)"><tspan x="0" y="0">G</tspan></text><text class="bj" transform="matrix(0.189, -0.982, 0.982, 0.189, 79.994, 452.613)"><tspan x="0" y="0">A</tspan></text><text class="bk" transform="translate(82.236 440.911) rotate(-77.14)"><tspan x="0" y="0">R</tspan></text><text class="bl" transform="translate(84.968 428.944) rotate(-75.291)"><tspan x="0" y="0">E</tspan></text><text class="bm" transform="translate(87.77 418.203) rotate(-73.49)"><tspan x="0" y="0">S</tspan></text><text class="bj" transform="translate(91.271 406.521) rotate(-72.215)"><tspan x="0" y="0"> </tspan></text><text class="bn" transform="translate(92.643 402.218) rotate(-71.456)"><tspan x="0" y="0">I</tspan></text><text class="bo" transform="translate(94.338 396.983) rotate(-70.014)"><tspan x="0" y="0">N</tspan></text><text class="bp" transform="translate(99.036 384.075) rotate(-68.105)"><tspan x="0" y="0">S</tspan></text><text class="bq" transform="translate(103.549 372.799) rotate(-66.263)"><tspan x="0" y="0">U</tspan></text><text class="br" transform="matrix(0.432, -0.902, 0.902, 0.432, 108.871, 360.692)"><tspan x="0" y="0">R</tspan></text><text class="bs" transform="translate(114.162 349.624) rotate(-62.7)"><tspan x="0" y="0">A</tspan></text><text class="bt" transform="matrix(0.487, -0.874, 0.874, 0.487, 119.609, 339.017)"><tspan x="0" y="0">N</tspan></text><text class="bo" transform="translate(126.293 327.027) rotate(-59.041)"><tspan x="0" y="0">C</tspan></text><text class="bu" transform="translate(132.514 316.654) rotate(-57.383)"><tspan x="0" y="0">E</tspan></text><text class="bv" transform="matrix(0.555, -0.832, 0.832, 0.555, 138.552, 307.27)"><tspan x="0" y="0"> </tspan></text><text class="bw" transform="translate(141.01 303.506) rotate(-55.05)"><tspan x="0" y="0">S</tspan></text><text class="bx" transform="matrix(0.599, -0.801, 0.801, 0.599, 147.948, 293.546)"><tspan x="0" y="0">O</tspan></text><text class="bs" transform="matrix(0.622, -0.783, 0.783, 0.622, 155.791, 283.094)"><tspan x="0" y="0">L</tspan></text><text class="by" transform="translate(161.543 275.791) rotate(-49.799)"><tspan x="0" y="0">U</tspan></text><text class="ao" transform="matrix(0.67, -0.743, 0.743, 0.67, 170.08, 265.712)"><tspan x="0" y="0">T</tspan></text><text class="bz" transform="matrix(0.686, -0.728, 0.728, 0.686, 176.832, 258.253)"><tspan x="0" y="0">I</tspan></text><text class="bx" transform="translate(180.565 254.206) rotate(-45.112)"><tspan x="0" y="0">O</tspan></text><text class="ca" transform="matrix(0.734, -0.679, 0.679, 0.734, 189.734, 244.968)"><tspan x="0" y="0">N</tspan></text><text class="cb" transform="translate(199.795 235.671) rotate(-40.289)"><tspan x="0" y="0">S</tspan></text><text class="cc" transform="translate(328.28 319.301) rotate(-35.681)"><tspan x="0" y="0">I</tspan></text><text class="ax" transform="translate(333.067 315.767) rotate(-33.568)"><tspan x="0" y="0">N</tspan></text><text class="cd" transform="translate(344.916 307.931) rotate(-30.798)"><tspan x="0" y="0">V</tspan></text><text class="ce" transform="matrix(0.881, -0.473, 0.473, 0.881, 355.227, 301.786)"><tspan x="0" y="0">E</tspan></text><text class="bh" transform="translate(365.402 296.297) rotate(-25.574)"><tspan x="0" y="0">S</tspan></text><text class="cf" transform="translate(376.792 290.869) rotate(-22.93)"><tspan x="0" y="0">T</tspan></text><text class="ce" transform="translate(386.383 286.697) rotate(-19.643)"><tspan x="0" y="0">M</tspan></text><text class="cg" transform="translate(402.695 280.96) rotate(-16.098)"><tspan x="0" y="0">E</tspan></text><text class="ce" transform="matrix(0.975, -0.222, 0.222, 0.975, 413.763, 277.72)"><tspan x="0" y="0">N</tspan></text><text class="ch" transform="translate(427.582 274.618) rotate(-9.621)"><tspan x="0" y="0">T</tspan></text><text class="ci" transform="translate(199.741 500.607) rotate(-84.329)"><tspan x="0" y="0">E</tspan></text><text class="cj" transform="matrix(0.146, -0.989, 0.989, 0.146, 200.849, 489.086)"><tspan x="0" y="0">N</tspan></text><text class="ck" transform="translate(202.966 475.049) rotate(-78.946)"><tspan x="0" y="0">T</tspan></text><text class="cl" transform="translate(204.964 464.748) rotate(-76.585)"><tspan x="0" y="0">E</tspan></text><text class="be" transform="translate(207.635 453.476) rotate(-73.979)"><tspan x="0" y="0">R</tspan></text><text class="cm" transform="matrix(0.319, -0.948, 0.948, 0.319, 211.158, 441.247)"><tspan x="0" y="0">P</tspan></text><text class="cn" transform="translate(214.814 430.34) rotate(-68.771)"><tspan x="0" y="0">R</tspan></text><text class="co" transform="translate(219.491 418.459) rotate(-66.752)"><tspan x="0" y="0">I</tspan></text><text class="cp" transform="matrix(0.427, -0.904, 0.904, 0.427, 221.788, 412.961)"><tspan x="0" y="0">S</tspan></text><text class="cq" transform="matrix(0.467, -0.884, 0.884, 0.467, 227.171, 401.569)"><tspan x="0" y="0">E</tspan></text><text class="ay" transform="translate(232.649 391.315) rotate(-60.349)"><tspan x="0" y="0"> </tspan></text><text class="cr" transform="matrix(0.523, -0.852, 0.852, 0.523, 235.044, 386.971)"><tspan x="0" y="0">R</tspan></text><text class="cs" transform="matrix(0.553, -0.833, 0.833, 0.553, 241.77, 376.134)"><tspan x="0" y="0">I</tspan></text><text class="ct" transform="translate(245.031 371.112) rotate(-54.414)"><tspan x="0" y="0">S</tspan></text><text class="cu" transform="translate(252.355 360.864) rotate(-51.68)"><tspan x="0" y="0">K</tspan></text><text class="cv" transform="translate(224.354 495.193) rotate(-81.405)"><tspan x="0" y="0">M</tspan></text><text class="cw" transform="matrix(0.203, -0.979, 0.979, 0.203, 227.004, 478.084)"><tspan x="0" y="0">A</tspan></text><text class="cx" transform="matrix(0.251, -0.968, 0.968, 0.251, 229.49, 465.955)"><tspan x="0" y="0">N</tspan></text><text class="cy" transform="translate(233.056 452.255) rotate(-72.606)"><tspan x="0" y="0">A</tspan></text><text class="cs" transform="translate(236.739 440.435) rotate(-69.722)"><tspan x="0" y="0">G</tspan></text><text class="cz" transform="translate(241.385 427.908) rotate(-66.84)"><tspan x="0" y="0">E</tspan></text><text class="da" transform="translate(245.839 417.256) rotate(-63.378)"><tspan x="0" y="0">M</tspan></text><text class="db" transform="translate(253.663 401.832) rotate(-59.785)"><tspan x="0" y="0">E</tspan></text><text class="cs" transform="translate(259.425 391.846) rotate(-56.484)"><tspan x="0" y="0">N</tspan></text><text class="dc" transform="matrix(0.598, -0.801, 0.801, 0.598, 267.29, 380.054)"><tspan x="0" y="0">T</tspan></text><text class="dd" transform="translate(679.392 388.943) rotate(55.138)"><tspan x="0" y="0">I</tspan></text><text class="au" transform="translate(682.862 393.772) rotate(57.479)"><tspan x="0" y="0">N</tspan></text><text class="bf" transform="translate(690.47 405.736) rotate(60.633)"><tspan x="0" y="0">C</tspan></text><text class="de" transform="matrix(0.449, 0.894, -0.894, 0.449, 696.592, 416.672)"><tspan x="0" y="0">L</tspan></text><text class="df" transform="translate(701.001 425.328) rotate(66.261)"><tspan x="0" y="0">U</tspan></text><text class="cm" transform="translate(706.481 437.809) rotate(69.672)"><tspan x="0" y="0">S</tspan></text><text class="ba" transform="translate(710.802 449.667) rotate(72.17)"><tspan x="0" y="0">I</tspan></text><text class="ce" transform="matrix(0.261, 0.965, -0.965, 0.261, 712.699, 455.262)"><tspan x="0" y="0">O</tspan></text><text class="dg" transform="translate(716.238 468.248) rotate(78.779)"><tspan x="0" y="0">N</tspan></text><text class="dh" transform="matrix(0.53, 0.848, -0.848, 0.53, 724.687, 370.103)"><tspan x="0" y="0">D</tspan></text><text class="cd" transform="translate(731.842 381.674) rotate(60.078)"><tspan x="0" y="0">I</tspan></text><text class="di" transform="translate(734.865 386.819) rotate(62.009)"><tspan x="0" y="0">V</tspan></text><text class="dh" transform="matrix(0.43, 0.903, -0.903, 0.43, 740.501, 397.428)"><tspan x="0" y="0">E</tspan></text><text class="dj" transform="translate(745.489 407.866) rotate(67.161)"><tspan x="0" y="0">R</tspan></text><text class="dk" transform="translate(750.437 419.608) rotate(69.896)"><tspan x="0" y="0">S</tspan></text><text class="bh" transform="translate(754.726 431.494) rotate(71.903)"><tspan x="0" y="0">I</tspan></text><text class="di" transform="translate(756.626 437.184) rotate(73.689)"><tspan x="0" y="0">T</tspan></text><text class="aq" transform="matrix(0.24, 0.971, -0.971, 0.24, 759.589, 447.245)"><tspan x="0" y="0">Y</tspan></text><text class="ch" transform="translate(762.414 458.902) rotate(77.936)"><tspan x="0" y="0">,</tspan></text><text class="dl" transform="matrix(0.676, 0.737, -0.737, 0.676, 772.83, 251.133)"><tspan x="0" y="0">A</tspan></text><text class="by" transform="translate(781.216 260.309) rotate(49.062)"><tspan x="0" y="0">L</tspan></text><text class="by" transform="matrix(0.639, 0.769, -0.769, 0.639, 786.872, 266.802)"><tspan x="0" y="0">T</tspan></text><text class="ca" transform="translate(793.623 274.921) rotate(51.769)"><tspan x="0" y="0">E</tspan></text><text class="bl" transform="translate(800.838 284.065) rotate(53.359)"><tspan x="0" y="0">R</tspan></text><text class="dm" transform="translate(808.466 294.302) rotate(55.08)"><tspan x="0" y="0">N</tspan></text><text class="dn" transform="translate(816.62 306.001) rotate(56.767)"><tspan x="0" y="0">A</tspan></text><text class="bx" transform="matrix(0.528, 0.849, -0.849, 0.528, 822.946, 315.656)"><tspan x="0" y="0">T</tspan></text><text class="do" transform="translate(828.528 324.666) rotate(59.157)"><tspan x="0" y="0">I</tspan></text><text class="dp" transform="translate(831.628 329.796) rotate(60.308)"><tspan x="0" y="0">V</tspan></text><text class="dp" transform="translate(837.608 340.284) rotate(61.841)"><tspan x="0" y="0">E</tspan></text><text class="dq" transform="translate(843.079 350.575) rotate(62.937)"><tspan x="0" y="0"> </tspan></text><text class="cf" transform="matrix(0.437, 0.9, -0.9, 0.437, 845.383, 354.993)"><tspan x="0" y="0">C</tspan></text><text class="bn" transform="translate(850.883 366.32) rotate(65.87)"><tspan x="0" y="0">R</tspan></text><text class="dr" transform="translate(856.098 377.975) rotate(67.624)"><tspan x="0" y="0">E</tspan></text><text class="dm" transform="translate(860.545 388.724) rotate(69.529)"><tspan x="0" y="0">D</tspan></text><text class="ds" transform="translate(865.26 401.498) rotate(71.079)"><tspan x="0" y="0">I</tspan></text><text class="av" transform="matrix(0.302, 0.953, -0.953, 0.302, 867.239, 407.179)"><tspan x="0" y="0">T</tspan></text><text class="cu" transform="matrix(0.53, 0.848, -0.848, 0.53, 704.848, 384.081)"><tspan x="0" y="0">E</tspan></text><text class="ax" transform="translate(710.999 393.855) rotate(60.645)"><tspan x="0" y="0">Q</tspan></text><text class="ay" transform="translate(717.652 405.668) rotate(63.629)"><tspan x="0" y="0">U</tspan></text><text class="dt" transform="translate(723.663 417.955) rotate(65.85)"><tspan x="0" y="0">I</tspan></text><text class="bf" transform="translate(726.143 423.391) rotate(67.762)"><tspan x="0" y="0">T</tspan></text><text class="dk" transform="translate(730.132 433.088) rotate(70.428)"><tspan x="0" y="0">Y</tspan></text><text class="ar" transform="translate(734.084 444.383) rotate(72.494)"><tspan x="0" y="0"> </tspan></text><text class="cc" transform="translate(735.742 448.999) rotate(75.506)"><tspan x="0" y="0">&amp;</tspan></text><text class="du" transform="translate(740.347 467.559) rotate(78.599)"><tspan x="0" y="0"> </tspan></text><text class="ct" transform="matrix(0.967, 0.253, -0.253, 0.967, 540.033, 290.485)"><tspan x="0" y="0">T</tspan></text><text class="cw" transform="translate(549.344 292.878) rotate(17.214)"><tspan x="0" y="0">A</tspan></text><text class="co" transform="matrix(0.94, 0.341, -0.341, 0.94, 561.131, 296.557)"><tspan x="0" y="0">L</tspan></text><text class="bg" transform="matrix(0.923, 0.385, -0.385, 0.923, 570.28, 299.849)"><tspan x="0" y="0">E</tspan></text><text class="dv" transform="matrix(0.898, 0.439, -0.439, 0.898, 580.96, 304.255)"><tspan x="0" y="0">N</tspan></text><text class="dw" transform="translate(593.651 310.512) rotate(29.43)"><tspan x="0" y="0">T</tspan></text><text class="co" transform="matrix(0.982, 0.191, -0.191, 0.982, 533.287, 240.176)"><tspan x="0" y="0">S</tspan></text><text class="ar" transform="translate(545.687 242.571) rotate(13.814)"><tspan x="0" y="0">U</tspan></text><text class="cx" transform="translate(558.927 245.848) rotate(16.504)"><tspan x="0" y="0">P</tspan></text><text class="cj" transform="matrix(0.946, 0.325, -0.325, 0.946, 569.946, 249.111)"><tspan x="0" y="0">P</tspan></text><text class="dx" transform="translate(580.808 252.815) rotate(21.662)"><tspan x="0" y="0">O</tspan></text><text class="dy" transform="translate(593.348 257.802) rotate(24.487)"><tspan x="0" y="0">R</tspan></text><text class="ci" transform="matrix(0.891, 0.454, -0.454, 0.891, 604.94, 263.106)"><tspan x="0" y="0">T</tspan></text><text class="cs" transform="translate(614.31 267.916) rotate(28.778)"><tspan x="0" y="0">I</tspan></text><text class="dz" transform="matrix(0.858, 0.514, -0.514, 0.858, 619.58, 270.718)"><tspan x="0" y="0">N</tspan></text><text class="ea" transform="matrix(0.83, 0.558, -0.558, 0.83, 631.727, 278.013)"><tspan x="0" y="0">G</tspan></text><text class="cs" transform="translate(513.173 261.633) rotate(8.519)"><tspan x="0" y="0">&amp;</tspan></text><text class="co" transform="translate(532.089 264.623) rotate(11.046)"><tspan x="0" y="0"> </tspan></text><text class="cy" transform="matrix(0.974, 0.225, -0.225, 0.974, 536.949, 265.494)"><tspan x="0" y="0">D</tspan></text><text class="be" transform="translate(550.179 268.566) rotate(15.683)"><tspan x="0" y="0">E</tspan></text><text class="eb" transform="matrix(0.95, 0.313, -0.313, 0.95, 561.321, 271.686)"><tspan x="0" y="0">V</tspan></text><text class="ec" transform="translate(572.72 275.447) rotate(20.926)"><tspan x="0" y="0">E</tspan></text><text class="ed" transform="translate(583.522 279.596) rotate(23.404)"><tspan x="0" y="0">L</tspan></text><text class="cu" transform="translate(592.473 283.414) rotate(26.192)"><tspan x="0" y="0">O</tspan></text><text class="ee" transform="matrix(0.872, 0.489, -0.489, 0.872, 604.571, 289.388)"><tspan x="0" y="0">P</tspan></text><text class="ct" transform="translate(614.573 295.054) rotate(31.496)"><tspan x="0" y="0">I</tspan></text><text class="ef" transform="matrix(0.828, 0.561, -0.561, 0.828, 619.677, 298.067)"><tspan x="0" y="0">N</tspan></text><text class="dz" transform="translate(631.384 305.998) rotate(37.735)"><tspan x="0" y="0">G</tspan></text><text class="eg" transform="translate(552.08 133.13) rotate(10.243)"><tspan x="0" y="0">L</tspan></text><text class="eh" transform="translate(561.725 134.889) rotate(11.27)"><tspan x="0" y="0">I</tspan></text><text class="ei" transform="translate(567.64 136.02) rotate(12.617)"><tspan x="0" y="0">Q</tspan></text><text class="ej" transform="translate(580.921 138.986) rotate(14.604)"><tspan x="0" y="0">U</tspan></text><text class="db" transform="translate(594.169 142.49) rotate(16.109)"><tspan x="0" y="0">I</tspan></text><text class="dc" transform="translate(599.953 144.105) rotate(17.66)"><tspan x="0" y="0">D</tspan></text><text class="dv" transform="translate(612.918 148.29) rotate(19.158)"><tspan x="0" y="0"> </tspan></text><text class="ek" transform="translate(617.64 149.88) rotate(20.593)"><tspan x="0" y="0">C</tspan></text><text class="ei" transform="matrix(0.923, 0.385, -0.385, 0.923, 629.4, 154.293)"><tspan x="0" y="0">R</tspan></text><text class="eg" transform="translate(641.187 159.225) rotate(24.632)"><tspan x="0" y="0">E</tspan></text><text class="el" transform="translate(651.746 164.047) rotate(26.611)"><tspan x="0" y="0">D</tspan></text><text class="cv" transform="matrix(0.882, 0.471, -0.471, 0.882, 663.91, 170.196)"><tspan x="0" y="0">I</tspan></text><text class="em" transform="translate(669.252 173.019) rotate(29.301)"><tspan x="0" y="0">T</tspan></text><text class="cq" transform="translate(885.882 536.856) rotate(88.449)"><tspan x="0" y="0">P</tspan></text><text class="en" transform="translate(886.206 548.311) rotate(91.108)"><tspan x="0" y="0">R</tspan></text><text class="cp" transform="translate(885.903 561.072) rotate(92.987)"><tspan x="0" y="0">I</tspan></text><text class="dc" transform="translate(885.635 567.069) rotate(94.682)"><tspan x="0" y="0">V</tspan></text><text class="dc" transform="translate(884.739 578.236) rotate(96.694)"><tspan x="0" y="0">A</tspan></text><text class="cz" transform="translate(883.393 589.692) rotate(98.469)"><tspan x="0" y="0">T</tspan></text><text class="ed" transform="matrix(-0.178, 0.984, -0.984, -0.178, 881.848, 600.125)"><tspan x="0" y="0">E</tspan></text><text class="cw" transform="translate(879.74 611.566) rotate(101.573)"><tspan x="0" y="0"> </tspan></text><text class="eo" transform="translate(878.778 616.465) rotate(102.877)"><tspan x="0" y="0">E</tspan></text><text class="cp" transform="matrix(-0.256, 0.967, -0.967, -0.256, 876.208, 627.784)"><tspan x="0" y="0">Q</tspan></text><text class="em" transform="translate(872.724 640.94) rotate(107.038)"><tspan x="0" y="0">U</tspan></text><text class="ep" transform="matrix(-0.32, 0.947, -0.947, -0.32, 868.661, 654.021)"><tspan x="0" y="0">I</tspan></text><text class="cv" transform="matrix(-0.344, 0.939, -0.939, -0.344, 866.773, 659.702)"><tspan x="0" y="0">T</tspan></text><text class="eq" transform="translate(863.161 669.615) rotate(112.176)"><tspan x="0" y="0">Y</tspan></text><text class="ba" transform="translate(202.226 557.69) rotate(85.371)"><tspan x="0" y="0">C</tspan></text><text class="er" transform="translate(203.314 570.826) rotate(81.918)"><tspan x="0" y="0">Y</tspan></text><text class="er" transform="translate(205.08 583.24) rotate(78.499)"><tspan x="0" y="0">B</tspan></text><text class="es" transform="translate(207.795 596.419) rotate(75.199)"><tspan x="0" y="0">E</tspan></text><text class="et" transform="matrix(0.309, 0.951, -0.951, 0.309, 210.898, 608.17)"><tspan x="0" y="0">R</tspan></text><text class="dt" transform="translate(215.038 620.868) rotate(68.808)"><tspan x="0" y="0">S</tspan></text><text class="dk" transform="translate(219.817 633.128) rotate(65.862)"><tspan x="0" y="0">E</tspan></text><text class="az" transform="translate(224.777 644.197) rotate(63.021)"><tspan x="0" y="0">C</tspan></text><text class="az" transform="translate(230.722 655.877) rotate(60.04)"><tspan x="0" y="0">U</tspan></text><text class="aw" transform="matrix(0.543, 0.84, -0.84, 0.543, 237.841, 668.18)"><tspan x="0" y="0">R</tspan></text><text class="di" transform="translate(245.038 679.193) rotate(55.073)"><tspan x="0" y="0">I</tspan></text><text class="aw" transform="translate(248.642 684.413) rotate(53.259)"><tspan x="0" y="0">T</tspan></text><text class="eu" transform="matrix(0.633, 0.774, -0.774, 0.633, 255.224, 693.245)"><tspan x="0" y="0">Y</tspan></text><text class="en" transform="matrix(0.018, 1, -1, 0.018, 57.656, 547.641)"><tspan x="0" y="0">A</tspan></text><text class="da" transform="translate(57.872 560.106) rotate(87.411)"><tspan x="0" y="0">S</tspan></text><text class="cs" transform="matrix(0.068, 0.998, -0.998, 0.068, 58.479, 572.772)"><tspan x="0" y="0">I</tspan></text><text class="dc" transform="matrix(0.092, 0.996, -0.996, 0.092, 58.846, 578.772)"><tspan x="0" y="0">A</tspan></text><text class="cl" transform="translate(60.031 591.163) rotate(83.349)"><tspan x="0" y="0"> </tspan></text><text class="ev" transform="matrix(0.141, 0.99, -0.99, 0.141, 60.554, 596.096)"><tspan x="0" y="0">C</tspan></text><text class="ew" transform="matrix(0.18, 0.984, -0.984, 0.18, 62.335, 608.611)"><tspan x="0" y="0">R</tspan></text><text class="cs" transform="translate(64.721 621.553) rotate(77.357)"><tspan x="0" y="0">E</tspan></text><text class="ex" transform="matrix(0.259, 0.966, -0.966, 0.259, 67.331, 633.25)"><tspan x="0" y="0">D</tspan></text><text class="ed" transform="matrix(0.287, 0.958, -0.958, 0.287, 70.902, 646.381)"><tspan x="0" y="0">I</tspan></text><text class="ex" transform="translate(72.603 652.152) rotate(71.935)"><tspan x="0" y="0">T</tspan></text><text class="ew" transform="translate(322.587 727.725) rotate(39.292)"><tspan x="0" y="0">G</tspan></text><text class="cs" transform="translate(333.542 736.662) rotate(35.103)"><tspan x="0" y="0">O</tspan></text><text class="ey" transform="translate(345.189 744.792) rotate(31.235)"><tspan x="0" y="0">V</tspan></text><text class="ev" transform="matrix(0.885, 0.466, -0.466, 0.885, 356.007, 751.325)"><tspan x="0" y="0">E</tspan></text><text class="em" transform="translate(366.807 757.011) rotate(24.322)"><tspan x="0" y="0">R</tspan></text><text class="cj" transform="matrix(0.936, 0.353, -0.353, 0.936, 379.024, 762.537)"><tspan x="0" y="0">N</tspan></text><text class="cw" transform="translate(392.899 767.722) rotate(17.214)"><tspan x="0" y="0">A</tspan></text><text class="cu" transform="translate(405.313 771.58) rotate(13.887)"><tspan x="0" y="0">N</tspan></text><text class="ez" transform="translate(419.708 775.099) rotate(10.621)"><tspan x="0" y="0">C</tspan></text><text class="cm" transform="translate(432.567 777.488) rotate(7.681)"><tspan x="0" y="0">E</tspan></text><text class="bi" transform="translate(444.51 779.032) rotate(5.586)"><tspan x="0" y="0">,</tspan></text><text class="ew" transform="translate(321.568 785.821) rotate(30.605)"><tspan x="0" y="0">&amp;</tspan></text><text class="ev" transform="translate(338.593 795.684) rotate(27.894)"><tspan x="0" y="0"> </tspan></text><text class="dc" transform="translate(343.272 798.217) rotate(26.028)"><tspan x="0" y="0">E</tspan></text><text class="cq" transform="translate(354.15 803.507) rotate(23.535)"><tspan x="0" y="0">T</tspan></text><text class="ci" transform="translate(364.237 807.936) rotate(20.786)"><tspan x="0" y="0">H</tspan></text><text class="fa" transform="translate(377.774 812.984) rotate(18.543)"><tspan x="0" y="0">I</tspan></text><text class="fb" transform="translate(383.793 815.061) rotate(16.466)"><tspan x="0" y="0">C</tspan></text><text class="ee" transform="matrix(0.972, 0.236, -0.236, 0.972, 396.348, 818.762)"><tspan x="0" y="0">S</tspan></text><text class="cv" transform="translate(317.891 754.614) rotate(35.885)"><tspan x="0" y="0">C</tspan></text><text class="fc" transform="matrix(0.845, 0.534, -0.534, 0.845, 328.592, 762.351)"><tspan x="0" y="0">O</tspan></text><text class="bc" transform="matrix(0.881, 0.473, -0.473, 0.881, 340.613, 770.005)"><tspan x="0" y="0">M</tspan></text><text class="ec" transform="translate(356.532 778.413) rotate(24.531)"><tspan x="0" y="0">P</tspan></text><text class="cw" transform="matrix(0.928, 0.373, -0.373, 0.928, 367.447, 783.362)"><tspan x="0" y="0">L</tspan></text><text class="co" transform="matrix(0.94, 0.342, -0.342, 0.94, 376.869, 787.113)"><tspan x="0" y="0">I</tspan></text><text class="ew" transform="translate(382.858 789.352) rotate(17.867)"><tspan x="0" y="0">A</tspan></text><text class="ef" transform="matrix(0.967, 0.256, -0.256, 0.967, 395.17, 793.333)"><tspan x="0" y="0">N</tspan></text><text class="cp" transform="translate(409.454 797.087) rotate(11.896)"><tspan x="0" y="0">C</tspan></text><text class="bc" transform="translate(422.239 799.759) rotate(9.258)"><tspan x="0" y="0">E</tspan></text><text class="ee" transform="matrix(0.603, -0.798, 0.798, 0.603, 701.079, 698.404)"><tspan x="0" y="0">P</tspan></text><text class="cc" transform="translate(708.347 688.83) rotate(-55.711)"><tspan x="0" y="0">H</tspan></text><text class="df" transform="translate(716.408 676.856) rotate(-57.918)"><tspan x="0" y="0">I</tspan></text><text class="ch" transform="translate(719.787 671.516) rotate(-59.662)"><tspan x="0" y="0">L</tspan></text><text class="fd" transform="translate(724.972 662.696) rotate(-62.117)"><tspan x="0" y="0">A</tspan></text><text class="av" transform="translate(731.04 651.256) rotate(-65.07)"><tspan x="0" y="0">N</tspan></text><text class="av" transform="translate(737.201 637.873) rotate(-67.82)"><tspan x="0" y="0">T</tspan></text><text class="at" transform="translate(741.392 627.68) rotate(-70.547)"><tspan x="0" y="0">H</tspan></text><text class="bh" transform="translate(746.207 613.97) rotate(-73.522)"><tspan x="0" y="0">R</tspan></text><text class="ap" transform="matrix(0.234, -0.972, 0.972, 0.234, 749.983, 601.194)"><tspan x="0" y="0">O</tspan></text><text class="fd" transform="translate(753.237 587.542) rotate(-79.232)"><tspan x="0" y="0">P</tspan></text><text class="et" transform="translate(755.474 575.769) rotate(-81.831)"><tspan x="0" y="0">Y</tspan></text><text class="ee" transform="matrix(0.898, -0.439, 0.439, 0.898, 677.337, 904.399)"><tspan x="0" y="0">I</tspan></text><text class="bf" transform="matrix(0.883, -0.469, 0.469, 0.883, 683.104, 901.652)"><tspan x="0" y="0">N</tspan></text><text class="bc" transform="translate(696.057 894.719) rotate(-30.274)"><tspan x="0" y="0">F</tspan></text><text class="cw" transform="matrix(0.845, -0.535, 0.535, 0.845, 705.803, 889.043)"><tspan x="0" y="0">R</tspan></text><text class="ck" transform="matrix(0.824, -0.566, 0.566, 0.824, 716.968, 881.958)"><tspan x="0" y="0">A</tspan></text><text class="es" transform="matrix(0.804, -0.595, 0.595, 0.804, 727.461, 874.75)"><tspan x="0" y="0">S</tspan></text><text class="cx" transform="matrix(0.784, -0.621, 0.621, 0.784, 737.73, 867.121)"><tspan x="0" y="0">T</tspan></text><text class="fe" transform="matrix(0.764, -0.645, 0.645, 0.764, 745.992, 860.603)"><tspan x="0" y="0">R</tspan></text><text class="be" transform="matrix(0.74, -0.672, 0.672, 0.74, 755.743, 852.381)"><tspan x="0" y="0">U</tspan></text><text class="ct" transform="matrix(0.716, -0.698, 0.698, 0.716, 765.885, 843.163)"><tspan x="0" y="0">C</tspan></text><text class="eb" transform="matrix(0.692, -0.722, 0.722, 0.692, 775.151, 834.091)"><tspan x="0" y="0">T</tspan></text><text class="bi" transform="matrix(0.666, -0.746, 0.746, 0.666, 782.752, 826.198)"><tspan x="0" y="0">U</tspan></text><text class="dg" transform="matrix(0.635, -0.773, 0.773, 0.635, 792.186, 815.601)"><tspan x="0" y="0">R</tspan></text><text class="eo" transform="matrix(0.604, -0.797, 0.797, 0.604, 800.566, 805.374)"><tspan x="0" y="0">E</tspan></text><text class="cp" transform="translate(542.127 786.9) rotate(-14.214)"><tspan x="0" y="0">C</tspan></text><text class="fb" transform="translate(554.78 783.652) rotate(-16.932)"><tspan x="0" y="0">L</tspan></text><text class="da" transform="translate(564.475 780.664) rotate(-18.859)"><tspan x="0" y="0">I</tspan></text><text class="da" transform="matrix(0.929, -0.37, 0.37, 0.929, 570.664, 778.687)"><tspan x="0" y="0">M</tspan></text><text class="en" transform="translate(587.347 771.943) rotate(-25.349)"><tspan x="0" y="0">A</tspan></text><text class="cw" transform="translate(598.193 766.794) rotate(-27.945)"><tspan x="0" y="0">T</tspan></text><text class="bi" transform="matrix(0.86, -0.51, 0.51, 0.86, 607.925, 761.635)"><tspan x="0" y="0">E</tspan></text><text class="dg" transform="matrix(0.993, 0.121, -0.121, 0.993, 418.756, 952.315)"><tspan x="0" y="0">R</tspan></text><text class="dk" transform="matrix(0.996, 0.094, -0.094, 0.996, 431.479, 953.865)"><tspan x="0" y="0">E</tspan></text><text class="es" transform="matrix(0.998, 0.067, -0.067, 0.998, 443.027, 954.958)"><tspan x="0" y="0">A</tspan></text><text class="ff" transform="matrix(0.999, 0.042, -0.042, 0.999, 455.466, 955.776)"><tspan x="0" y="0">L</tspan></text><text class="ar" transform="matrix(1, 0.026, -0.026, 1, 465.28, 956.169)"><tspan x="0" y="0"> </tspan></text><text class="at" transform="matrix(1, 0.007, -0.007, 1, 470.25, 956.329)"><tspan x="0" y="0">E</tspan></text><text class="es" transform="matrix(1, -0.02, 0.02, 1, 481.908, 956.419)"><tspan x="0" y="0">S</tspan></text><text class="az" transform="matrix(0.999, -0.046, 0.046, 0.999, 494.582, 956.152)"><tspan x="0" y="0">T</tspan></text><text class="fa" transform="matrix(0.998, -0.07, 0.07, 0.998, 504.215, 955.731)"><tspan x="0" y="0">A</tspan></text><text class="eu" transform="matrix(0.995, -0.095, 0.095, 0.995, 515.742, 954.915)"><tspan x="0" y="0">T</tspan></text><text class="cd" transform="matrix(0.993, -0.121, 0.121, 0.993, 526.252, 953.92)"><tspan x="0" y="0">E</tspan></text><text class="ck" transform="matrix(0.673, 0.739, -0.739, 0.673, 157.548, 809.293)"><tspan x="0" y="0">S</tspan></text><text class="ei" transform="matrix(0.692, 0.722, -0.722, 0.692, 166.081, 818.653)"><tspan x="0" y="0">E</tspan></text><text class="cl" transform="matrix(0.71, 0.705, -0.705, 0.71, 174.135, 827.067)"><tspan x="0" y="0">C</tspan></text><text class="ev" transform="matrix(0.728, 0.685, -0.685, 0.728, 183.073, 835.951)"><tspan x="0" y="0">O</tspan></text><text class="db" transform="matrix(0.747, 0.664, -0.664, 0.747, 192.949, 845.254)"><tspan x="0" y="0">N</tspan></text><text class="fb" transform="matrix(0.766, 0.643, -0.643, 0.766, 203.611, 854.731)"><tspan x="0" y="0">D</tspan></text><text class="co" transform="matrix(0.784, 0.621, -0.621, 0.784, 214.046, 863.474)"><tspan x="0" y="0">A</tspan></text><text class="cl" transform="translate(223.801 871.213) rotate(36.84)"><tspan x="0" y="0">R</tspan></text><text class="cz" transform="translate(234.072 878.864) rotate(35.637)"><tspan x="0" y="0">I</tspan></text><text class="fb" transform="translate(238.963 882.408) rotate(34.475)"><tspan x="0" y="0">E</tspan></text><text class="dx" transform="translate(248.541 888.995) rotate(32.831)"><tspan x="0" y="0">S</tspan></text><text class="eq" transform="translate(551.286 808.417) rotate(-15.079)"><tspan x="0" y="0">C</tspan></text><text class="fg" transform="translate(563.945 805.015) rotate(-18.02)"><tspan x="0" y="0">H</tspan></text><text class="cr" transform="translate(577.745 800.494) rotate(-20.945)"><tspan x="0" y="0">A</tspan></text><text class="cs" transform="translate(589.84 795.877) rotate(-23.903)"><tspan x="0" y="0">N</tspan></text><text class="ci" transform="translate(603.35 789.865) rotate(-26.979)"><tspan x="0" y="0">G</tspan></text><text class="ay" transform="translate(615.745 783.52) rotate(-29.763)"><tspan x="0" y="0">E</tspan></text><g class="b"><path class="k" d="M224.585,258.325c20.659-21.762,53.232-45.936,75.459-57.864l16.141,25.964a342.57,342.57,0,0,0-76.73,56.621"/><rect class="c" width="2" height="13" transform="translate(219.288 254.469) rotate(-45.202)"/><rect class="c" width="2" height="13" transform="translate(234.26 279.039) rotate(-43.582)"/></g><text class="fh" transform="translate(393.304 504.349)"><tspan x="0" y="0">O</tspan></text><text class="fh" transform="translate(416.464 504.349)"><tspan x="0" y="0">U</tspan></text><text class="fh" transform="translate(439.654 504.349)"><tspan x="0" y="0">R</tspan></text><text class="fh" transform="translate(461.944 504.349)"><tspan x="0" y="0"> </tspan></text><text class="fh" transform="translate(472.534 504.349)"><tspan x="0" y="0">M</tspan></text><text class="fh" transform="translate(501.424 504.349)"><tspan x="0" y="0">O</tspan></text><text class="fh" transform="translate(524.403 504.349)"><tspan x="0" y="0">S</tspan></text><text class="fh" transform="translate(546.273 504.349)"><tspan x="0" y="0">T</tspan></text><text class="fh" transform="translate(399.214 536.359)"><tspan x="0" y="0">M</tspan></text><text class="fh" transform="translate(428.014 536.359)"><tspan x="0" y="0">A</tspan></text><text class="fh" transform="translate(448.054 536.359)"><tspan x="0" y="0">T</tspan></text><text class="fh" transform="translate(466.833 536.359)"><tspan x="0" y="0">E</tspan></text><text class="fh" transform="translate(486.813 536.359)"><tspan x="0" y="0">R</tspan></text><text class="fh" transform="translate(508.414 536.359)"><tspan class="fi" x="0" y="0">I</tspan><tspan y="0">A</tspan></text><text class="fh" transform="translate(541.534 536.359)"><tspan x="0" y="0">L</tspan></text><text class="fh" transform="translate(415.833 568.369)"><tspan class="fj" x="0" y="0">I</tspan><tspan y="0">S</tspan></text><text class="fh" transform="translate(448.833 568.369)"><tspan x="0" y="0">S</tspan></text><text class="fh" transform="translate(470.194 568.369)"><tspan x="0" y="0">U</tspan></text><text class="fh" transform="translate(493.414 568.369)"><tspan x="0" y="0">E</tspan></text><text class="fh" transform="translate(513.033 568.369)"><tspan x="0" y="0">S </tspan></text><g class="b"><line class="fk" x2="111.962" transform="translate(422.037 34.061)"/><line class="fk" y2="6.27" transform="translate(422.037 30.926)"/><line class="fk" y2="6.27" transform="translate(534 30.926)"/><line class="fk" y1="33.994" transform="translate(478.145 35.558)"/><text class="fl" transform="translate(559.774 18.38)"><tspan class="fm" x="0" y="0">SI</tspan><tspan y="0">G</tspan></text><text class="fl" transform="translate(599.209 18.38)"><tspan x="0" y="0">N</tspan></text><text class="fl" transform="translate(616.285 18.38)"><tspan class="fm" x="0" y="0">I</tspan><tspan class="fn" y="0">F</tspan><tspan class="fm" y="0">ICA</tspan><tspan class="fn" y="0">N</tspan><tspan class="fm" y="0">C</tspan><tspan class="fn" y="0">E</tspan><tspan class="fm" y="0"> </tspan><tspan y="0">O</tspan></text><text class="fl" transform="translate(745.313 18.38)"><tspan x="0" y="0">F</tspan></text></g><text class="fl" transform="translate(559.774 45.13)"><tspan class="fn" x="0" y="0">F</tspan><tspan y="0">I</tspan></text><text class="fl" transform="translate(580.975 45.13)"><tspan x="0" y="0">N</tspan></text><text class="fl" transform="translate(598.05 45.13)"><tspan class="fm" x="0" y="0">ANCIAL </tspan><tspan y="0">I</tspan></text><text class="fl" transform="translate(695.2 45.13)"><tspan x="0" y="0">M</tspan></text><text class="fl" transform="translate(715.775 45.13)"><tspan x="0" y="0">P</tspan></text><text class="fl" transform="translate(728.928 45.13)"><tspan class="fm" x="0" y="0">A</tspan><tspan y="0">C</tspan></text><text class="fl" transform="translate(759.245 45.13)"><tspan x="0" y="0">T</tspan></text><text class="fl" transform="translate(559.774 71.881)"><tspan x="0" y="0">T</tspan></text><text class="fl" transform="translate(572.748 71.881)"><tspan x="0" y="0">O</tspan></text><text class="fl" transform="translate(589.066 71.881)"><tspan x="0" y="0"> </tspan></text><text class="fl" transform="translate(595.821 71.881)"><tspan x="0" y="0">O</tspan></text><text class="fl" transform="translate(612.139 71.881)"><tspan x="0" y="0">U</tspan></text><text class="fl" transform="translate(628.635 71.881)"><tspan x="0" y="0">R</tspan></text><text class="fl" transform="translate(644.083 71.881)"><tspan class="fm" x="0" y="0"> </tspan><tspan class="fn" y="0">B</tspan><tspan class="fm" y="0">US</tspan><tspan y="0">I</tspan></text><text class="fl" transform="translate(706.123 71.881)"><tspan x="0" y="0">N</tspan></text><text class="fl" transform="translate(723.198 71.881)"><tspan class="fn" x="0" y="0">E</tspan><tspan y="0">S</tspan></text><text class="fl" transform="translate(752.713 71.881)"><tspan x="0" y="0" xml:space="preserve">S  </tspan></text><text class="fl" transform="translate(259.855 31.599)"><tspan x="0" y="0">I</tspan></text><text class="fl" transform="translate(267.747 31.599)"><tspan x="0" y="0">M</tspan></text><text class="fl" transform="translate(288.322 31.599)"><tspan x="0" y="0">P</tspan></text><text class="fl" transform="translate(302.389 31.599)"><tspan x="0" y="0">O</tspan></text><text class="fl" transform="translate(318.707 31.599)"><tspan x="0" y="0">R</tspan></text><text class="fl" transform="translate(334.177 31.599)"><tspan x="0" y="0">T</tspan></text><text class="fl" transform="translate(346.148 31.599)"><tspan x="0" y="0">A</tspan></text><text class="fl" transform="translate(361.218 31.599)"><tspan x="0" y="0">N</tspan></text><text class="fl" transform="translate(378.293 31.599)"><tspan x="0" y="0">C</tspan></text><text class="fl" transform="translate(393.542 31.599)"><tspan x="0" y="0">E</tspan></text><text class="fl" transform="translate(192.756 58.35)"><tspan x="0" y="0">T</tspan></text><text class="fl" transform="translate(205.708 58.35)"><tspan class="fn" x="0" y="0">O</tspan><tspan class="fm" y="0"> </tspan><tspan y="0">S</tspan></text><text class="fl" transform="translate(244.139 58.35)"><tspan x="0" y="0">T</tspan></text><text class="fl" transform="translate(256.088 58.35)"><tspan class="fm" x="0" y="0">AK</tspan><tspan class="fn" y="0">E</tspan><tspan class="fm" y="0">H</tspan><tspan class="fn" y="0">O</tspan><tspan class="fm" y="0">L</tspan><tspan y="0">D</tspan></text><text class="fl" transform="translate(362.756 58.35)"><tspan x="0" y="0">E</tspan></text><text class="fl" transform="translate(376.912 58.35)"><tspan x="0" y="0">R</tspan></text><text class="fl" transform="translate(392.382 58.35)"><tspan x="0" y="0">S</tspan></text><g class="b"><path class="g" d="M469.609,58.8h16.818l-8.409,32.165Z"/></g></svg>