<svg xmlns="http://www.w3.org/2000/svg" width="60" height="50" viewBox="0 0 60 50">
    <defs>
        <style>
            .cls-1{fill:#aec8c7}.cls-2{fill:#123a5f}.cls-3{fill:#fff}.cls-4{fill:#5386a5}.cls-5{fill:#5e84a1}.cls-6{fill:none}.cls-7{fill:#5c9a95}
        </style>
    </defs>
    <g id="resource_icon" transform="translate(-548.396 -851.522)">
        <g id="source" transform="translate(548.396 851.522)">
            <g id="icon">
                <path id="Path_3139" d="M44.35 47a1.24 1.24 0 0 1-.33 0l-23.24-6.25a1.28 1.28 0 0 1-.91-1.56l8.06-30.35a1.28 1.28 0 0 1 1.57-.91l23.24 6.17a1.27 1.27 0 0 1 .9 1.56L45.59 46a1.29 1.29 0 0 1-1.24 1zm-22.86-7.71l22.64 6L52 15.55l-22.64-6z" class="cls-1" data-name="Path 3139"/>
                <path id="Path_3140" d="M43.43 32.84l-13.08-3.47a.26.26 0 0 0-.3.2.24.24 0 0 0 .17.3l13.07 3.47a.27.27 0 0 0 .31-.2.24.24 0 0 0-.17-.3z" class="cls-2" data-name="Path 3140"/>
                <path id="Path_3141" d="M30.79 27.72l2.45.65a.29.29 0 0 0 .35-.2l.58-2.17a.29.29 0 0 0-.2-.35L31.52 25a.29.29 0 0 0-.35.2l-.58 2.18a.29.29 0 0 0 .2.34zm.85-2.11l1.91.5-.43 1.64-1.91-.51z" class="cls-2" data-name="Path 3141"/>
                <path id="Path_3142" d="M35.63 23.75a.28.28 0 0 0-.34.2l-1.16 4.36a.27.27 0 0 0 .2.34l2.45.66a.29.29 0 0 0 .35-.2l1.16-4.36a.29.29 0 0 0-.2-.35zm1 4.94l-1.91-.51 1-3.81 1.91.51z" class="cls-2" data-name="Path 3142"/>
                <path id="Path_3143" d="M38.89 25.78a.29.29 0 0 0-.35.2l-.87 3.27a.28.28 0 0 0 .2.34l2.45.66a.28.28 0 0 0 .35-.2l.87-3.27a.29.29 0 0 0-.2-.35zm1.31 3.85l-1.91-.51.71-2.72 1.91.51z" class="cls-2" data-name="Path 3143"/>
                <path id="Path_3144" d="M45.74 24.1l-2.45-.65a.28.28 0 0 0-.34.2l-1.74 6.54a.28.28 0 0 0 .2.34l2.46.66a.28.28 0 0 0 .34-.2L46 24.45a.29.29 0 0 0-.26-.35zm-2 6.47l-1.91-.51 1.59-6 1.91.51z" class="cls-2" data-name="Path 3144"/>
                <path id="Path_3145" d="M33.32 23.14a1.13 1.13 0 0 0 1.38-.8 1.1 1.1 0 0 0 0-.36l2-.6a1.14 1.14 0 0 0 .69.52 1.12 1.12 0 0 0 1.08-.29l1.4.87v.07a1.13 1.13 0 1 0 2.18.58 1.22 1.22 0 0 0 0-.57l2.47-1.31a1.06 1.06 0 0 0 .56.35 1.13 1.13 0 1 0-.8-1.38 1.1 1.1 0 0 0 0 .57l-2.45 1.31a1.14 1.14 0 0 0-.56-.35 1.12 1.12 0 0 0-1.08.29l-1.4-.87v-.07a1.13 1.13 0 0 0-2.18-.58 1.06 1.06 0 0 0 0 .35l-2 .61a1.09 1.09 0 0 0-.71-.48 1.13 1.13 0 0 0-.58 2.18zM45.53 20a.56.56 0 1 1-.69.4.57.57 0 0 1 .69-.4zm-4.41 2.32a.56.56 0 1 1-.69.4.57.57 0 0 1 .69-.43zm-3.25-2a.56.56 0 1 1-.69.4.57.57 0 0 1 .69-.45zm-4.12 1.18a.56.56 0 1 1-.69.4.57.57 0 0 1 .69-.4z" class="cls-2" data-name="Path 3145"/>
                <path id="Rectangle_954" d="M0 0h23.385v30.734H0z" class="cls-3" data-name="Rectangle 954" transform="rotate(-7.481 63.98 -64.144)"/>
                <path id="Path_3146" d="M31.47 5.5l3.91 28.93-21.64 2.93L9.83 8.43 31.47 5.5m1-1.73h-.07L8.52 7a.49.49 0 0 0-.41.55l4.21 31.11a.48.48 0 0 0 .48.42h.06l23.83-3.22a.5.5 0 0 0 .42-.55L32.9 4.19a.5.5 0 0 0-.48-.42z" class="cls-4" data-name="Path 3146"/>
                <path id="Path_3147" d="M25.59 21.34a.41.41 0 0 1-.27-.07.42.42 0 0 1-.14-.24.39.39 0 0 1 .07-.26.36.36 0 0 1 .5-.07.33.33 0 0 1 .14.24.36.36 0 0 1-.07.26.43.43 0 0 1-.23.14zm-.95-.72a.42.42 0 0 1-.27-.07.36.36 0 1 1 .57-.33.32.32 0 0 1-.07.26.39.39 0 0 1-.23.14zm-.95-.72a.41.41 0 0 1-.26-.07.35.35 0 0 1-.07-.5.36.36 0 0 1 .5-.07.33.33 0 0 1 .14.23.37.37 0 0 1-.07.27.42.42 0 0 1-.24.14zm-.94-.72a.38.38 0 0 1-.27-.08.34.34 0 0 1-.13-.23.3.3 0 0 1 .07-.26.35.35 0 1 1 .58.39.39.39 0 0 1-.25.18zm-.95-.72a.41.41 0 0 1-.26-.07.357.357 0 1 1 .43-.57.33.33 0 0 1 .14.24.36.36 0 0 1-.07.26.4.4 0 0 1-.24.14z" class="cls-5" data-name="Path 3147"/>
                <path id="Path_3148" d="M24.86 22.28a.355.355 0 0 1-.33-.57.36.36 0 0 1 .5-.06.39.39 0 0 1 .14.23.42.42 0 0 1-.07.27.36.36 0 0 1-.24.13zm-.94-.72a.355.355 0 0 1-.33-.57.37.37 0 0 1 .5-.07.36.36 0 0 1-.17.64zm-1-.72a.33.33 0 0 1-.26-.07.39.39 0 0 1-.14-.23.42.42 0 0 1 .07-.27.36.36 0 0 1 .5-.06.31.31 0 0 1 .14.23.35.35 0 0 1-.07.26.33.33 0 0 1-.16.14zm-.92-.72a.37.37 0 0 1-.27-.07.35.35 0 0 1-.07-.5.37.37 0 0 1 .51-.06.35.35 0 0 1 .06.49.31.31 0 0 1-.23.14zm-1-.72a.355.355 0 0 1-.33-.57.36.36 0 0 1 .5-.07.386.386 0 0 1-.09.64z" class="cls-5" data-name="Path 3148"/>
                <path id="Path_3149" d="M24.14 23.23a.357.357 0 1 1 .17-.64.33.33 0 0 1 .14.24.35.35 0 0 1-.07.26.37.37 0 0 1-.24.14zm-.94-.72a.38.38 0 0 1-.27-.07.36.36 0 1 1 .44-.57.35.35 0 0 1 .06.5.37.37 0 0 1-.23.14zm-.95-.72a.39.39 0 0 1-.26-.07.35.35 0 0 1-.07-.5.36.36 0 0 1 .5-.07.35.35 0 0 1 .07.5.4.4 0 0 1-.24.14zm-.94-.72A.42.42 0 0 1 21 21a.41.41 0 0 1-.14-.24.35.35 0 0 1 .14-.26.37.37 0 0 1 .5-.07.36.36 0 0 1 .13.24.35.35 0 0 1-.07.26.39.39 0 0 1-.25.14zm-.95-.72a.39.39 0 0 1-.26-.07.43.43 0 0 1-.14-.23.359.359 0 0 1 .57-.34.42.42 0 0 1 .14.24.41.41 0 0 1-.07.26.42.42 0 0 1-.24.14z" class="cls-5" data-name="Path 3149"/>
                <path id="Path_3150" d="M22.48 23.45a.35.35 0 0 1-.33-.57.36.36 0 0 1 .5-.06.34.34 0 0 1 .13.23.33.33 0 0 1-.07.27.36.36 0 0 1-.23.13zm-.95-.72a.363.363 0 0 1-.4-.3.37.37 0 0 1 .07-.27.36.36 0 0 1 .5-.06.39.39 0 0 1 .14.23.42.42 0 0 1-.07.27.41.41 0 0 1-.24.13zm-.94-.73a.37.37 0 0 1-.27-.07.36.36 0 0 1 .43-.57.37.37 0 0 1 .07.51.34.34 0 0 1-.23.13zm-.95-.72a.33.33 0 0 1-.26-.07.37.37 0 0 1-.14-.22.4.4 0 0 1 .07-.28.36.36 0 0 1 .5-.06.39.39 0 0 1 .14.23.42.42 0 0 1-.07.27.36.36 0 0 1-.24.14z" class="cls-5" data-name="Path 3150"/>
                <path id="Path_3151" d="M20.81 23.68a.35.35 0 0 1-.26-.07.33.33 0 0 1-.14-.24.353.353 0 1 1 .7-.09.34.34 0 0 1-.06.26.33.33 0 0 1-.24.14zm-.94-.68a.37.37 0 0 1-.27-.07.36.36 0 0 1-.13-.24.31.31 0 0 1 .07-.26.35.35 0 0 1 .49-.07.33.33 0 0 1 .14.24.35.35 0 0 1-.07.26.33.33 0 0 1-.23.14zm-.95-.72a.355.355 0 0 1-.33-.57.36.36 0 0 1 .5-.07.37.37 0 0 1 .14.24.41.41 0 0 1-.07.26.45.45 0 0 1-.24.1z" class="cls-5" data-name="Path 3151"/>
                <path id="Path_3152" d="M26 15.94l1.62-.22.52-.69a6.59 6.59 0 0 0-.49-1.26z" class="cls-6" data-name="Path 3152"/>
                <path id="Path_3153" d="M25.17 11.09l-3.5 4.6.11.81.81-.11 3.5-4.6a6.37 6.37 0 0 0-.92-.7z" class="cls-6" data-name="Path 3153"/>
                <path id="Path_3154" d="M23.52 10.33l-2.19 2.87.22 1.62 3.08-4a6.78 6.78 0 0 0-1.11-.49z" class="cls-6" data-name="Path 3154"/>
                <path id="Path_3155" d="M26.54 12.23l-3.08 4 1.62-.22 2.19-2.87a6.84 6.84 0 0 0-.73-.91z" class="cls-6" data-name="Path 3155"/>
                <path id="Path_3156" d="M21.52 10l-.52.68.21 1.62 1.66-2.17a6.06 6.06 0 0 0-1.35-.13z" class="cls-6" data-name="Path 3156"/>
                <path id="Path_3157" d="M20.91 10.05l.09.66.52-.68a1.568 1.568 0 0 0-.61.02z" class="cls-7" data-name="Path 3157"/>
                <path id="Path_3158" d="M22.87 10.16l-1.66 2.17.12.87 2.19-2.87a4.77 4.77 0 0 0-.65-.17z" class="cls-7" data-name="Path 3158"/>
                <path id="Path_3159" d="M24.63 10.78l-3.08 4 .12.87 3.5-4.6a4.74 4.74 0 0 0-.54-.27z" class="cls-7" data-name="Path 3159"/>
                <path id="Path_3160" d="M26.09 11.79l-3.5 4.6.87-.12 3.08-4a6.251 6.251 0 0 0-.45-.48z" class="cls-7" data-name="Path 3160"/>
                <path id="Path_3161" d="M27.27 13.18l-2.19 2.87.87-.11 1.65-2.17a5.6 5.6 0 0 0-.33-.59z" class="cls-7" data-name="Path 3161"/>
                <path id="Path_3162" d="M28.23 15.63a2.607 2.607 0 0 0-.14-.6l-.52.69z" class="cls-7" data-name="Path 3162"/>
                <path id="Path_3163" d="M21.6 17a.22.22 0 0 1-.22-.19l-.93-6.91a.25.25 0 0 1 .05-.16.21.21 0 0 1 .15-.09 7.16 7.16 0 0 1 8 6.12.22.22 0 0 1-.19.25l-6.83.98zm-.67-6.88l.87 6.4 6.4-.86a6.71 6.71 0 0 0-7.27-5.59z" class="cls-2" data-name="Path 3163"/>
                <path id="Path_3164" d="M16.64 29.1a.24.24 0 0 1-.23-.2.23.23 0 0 1 .2-.25l13.47-1.82a.222.222 0 1 1 .06.44l-13.47 1.82z" class="cls-2" data-name="Path 3164"/>
                <path id="Path_3165" d="M16.93 31.25a.226.226 0 0 1-.03-.45L30.37 29a.22.22 0 0 1 .25.19.23.23 0 0 1-.19.26L17 31.25z" class="cls-2" data-name="Path 3165"/>
                <path id="Path_3166" d="M17.22 33.4a.23.23 0 0 1 0-.45l13.47-1.82a.227.227 0 0 1 .06.45l-13.5 1.82z" class="cls-2" data-name="Path 3166"/>
                <path id="Path_3167" d="M21.59 23.86a7.14 7.14 0 0 1-5.67-11.46 7.14 7.14 0 1 1 5.67 11.46zm-5.31-11.19a6.69 6.69 0 1 0 9.38-1.26 6.69 6.69 0 0 0-9.38 1.26z" class="cls-2" data-name="Path 3167"/>
                <path id="Path_3168" d="M21.58 23.87a7.12 7.12 0 0 1-4.32-1.46.24.24 0 0 1-.09-.15.22.22 0 0 1 0-.17l4.19-5.5a.2.2 0 0 1 .15-.08.19.19 0 0 1 .16 0l5.5 4.19a.24.24 0 0 1 .05.32 7.16 7.16 0 0 1-5.64 2.85zm-3.87-1.68A6.71 6.71 0 0 0 26.77 21l-5.14-4z" class="cls-2" data-name="Path 3168"/>
            </g>
            <g id="Layer_2" data-name="Layer 2">
                <path id="Rectangle_955" d="M0 0h60v50H0z" class="cls-6" data-name="Rectangle 955"/>
            </g>
        </g>
    </g>
</svg>
