<svg width="1920" height="1080" viewBox="0 0 1920 1080" fill="none" xmlns="http://www.w3.org/2000/svg">
  <rect width="1920" height="1080" fill="#2B2D31"/>
  <path opacity="0.1" fill-rule="evenodd" clip-rule="evenodd"
        d="M1512 118.5C1512 130.374 1502.37 140 1490.5 140C1478.63 140 1469 130.374 1469 118.5C1469 106.626 1478.63 97 1490.5 97C1502.37 97 1512 106.626 1512 118.5ZM1587 118.5C1587 130.374 1577.37 140 1565.5 140C1553.63 140 1544 130.374 1544 118.5C1544 106.626 1553.63 97 1565.5 97C1577.37 97 1587 106.626 1587 118.5ZM1640.5 140C1652.37 140 1662 130.374 1662 118.5C1662 106.626 1652.37 97 1640.5 97C1628.63 97 1619 106.626 1619 118.5C1619 130.374 1628.63 140 1640.5 140ZM1737 118.5C1737 130.374 1727.37 140 1715.5 140C1703.63 140 1694 130.374 1694 118.5C1694 106.626 1703.63 97 1715.5 97C1727.37 97 1737 106.626 1737 118.5ZM1490.5 215C1502.37 215 1512 205.374 1512 193.5C1512 181.626 1502.37 172 1490.5 172C1478.63 172 1469 181.626 1469 193.5C1469 205.374 1478.63 215 1490.5 215ZM1587 193.5C1587 205.374 1577.37 215 1565.5 215C1553.63 215 1544 205.374 1544 193.5C1544 181.626 1553.63 172 1565.5 172C1577.37 172 1587 181.626 1587 193.5ZM1640.5 215C1652.37 215 1662 205.374 1662 193.5C1662 181.626 1652.37 172 1640.5 172C1628.63 172 1619 181.626 1619 193.5C1619 205.374 1628.63 215 1640.5 215ZM1737 193.5C1737 205.374 1727.37 215 1715.5 215C1703.63 215 1694 205.374 1694 193.5C1694 181.626 1703.63 172 1715.5 172C1727.37 172 1737 181.626 1737 193.5ZM1490.5 290C1502.37 290 1512 280.374 1512 268.5C1512 256.626 1502.37 247 1490.5 247C1478.63 247 1469 256.626 1469 268.5C1469 280.374 1478.63 290 1490.5 290ZM1587 268.5C1587 280.374 1577.37 290 1565.5 290C1553.63 290 1544 280.374 1544 268.5C1544 256.626 1553.63 247 1565.5 247C1577.37 247 1587 256.626 1587 268.5ZM1640.5 290C1652.37 290 1662 280.374 1662 268.5C1662 256.626 1652.37 247 1640.5 247C1628.63 247 1619 256.626 1619 268.5C1619 280.374 1628.63 290 1640.5 290ZM1737 268.5C1737 280.374 1727.37 290 1715.5 290C1703.63 290 1694 280.374 1694 268.5C1694 256.626 1703.63 247 1715.5 247C1727.37 247 1737 256.626 1737 268.5ZM1490.5 365C1502.37 365 1512 355.374 1512 343.5C1512 331.626 1502.37 322 1490.5 322C1478.63 322 1469 331.626 1469 343.5C1469 355.374 1478.63 365 1490.5 365ZM1587 343.5C1587 355.374 1577.37 365 1565.5 365C1553.63 365 1544 355.374 1544 343.5C1544 331.626 1553.63 322 1565.5 322C1577.37 322 1587 331.626 1587 343.5ZM1640.5 365C1652.37 365 1662 355.374 1662 343.5C1662 331.626 1652.37 322 1640.5 322C1628.63 322 1619 331.626 1619 343.5C1619 355.374 1628.63 365 1640.5 365ZM1737 343.5C1737 355.374 1727.37 365 1715.5 365C1703.63 365 1694 355.374 1694 343.5C1694 331.626 1703.63 322 1715.5 322C1727.37 322 1737 331.626 1737 343.5Z"
        fill="white"/>
  <path opacity="0.05" fill-rule="evenodd" clip-rule="evenodd"
        d="M208 179.5C208 191.374 198.374 201 186.5 201C174.626 201 165 191.374 165 179.5C165 167.626 174.626 158 186.5 158C198.374 158 208 167.626 208 179.5ZM283 179.5C283 191.374 273.374 201 261.5 201C249.626 201 240 191.374 240 179.5C240 167.626 249.626 158 261.5 158C273.374 158 283 167.626 283 179.5ZM336.5 201C348.374 201 358 191.374 358 179.5C358 167.626 348.374 158 336.5 158C324.626 158 315 167.626 315 179.5C315 191.374 324.626 201 336.5 201ZM433 179.5C433 191.374 423.374 201 411.5 201C399.626 201 390 191.374 390 179.5C390 167.626 399.626 158 411.5 158C423.374 158 433 167.626 433 179.5ZM186.5 276C198.374 276 208 266.374 208 254.5C208 242.626 198.374 233 186.5 233C174.626 233 165 242.626 165 254.5C165 266.374 174.626 276 186.5 276ZM283 254.5C283 266.374 273.374 276 261.5 276C249.626 276 240 266.374 240 254.5C240 242.626 249.626 233 261.5 233C273.374 233 283 242.626 283 254.5ZM336.5 276C348.374 276 358 266.374 358 254.5C358 242.626 348.374 233 336.5 233C324.626 233 315 242.626 315 254.5C315 266.374 324.626 276 336.5 276ZM433 254.5C433 266.374 423.374 276 411.5 276C399.626 276 390 266.374 390 254.5C390 242.626 399.626 233 411.5 233C423.374 233 433 242.626 433 254.5ZM186.5 351C198.374 351 208 341.374 208 329.5C208 317.626 198.374 308 186.5 308C174.626 308 165 317.626 165 329.5C165 341.374 174.626 351 186.5 351ZM283 329.5C283 341.374 273.374 351 261.5 351C249.626 351 240 341.374 240 329.5C240 317.626 249.626 308 261.5 308C273.374 308 283 317.626 283 329.5ZM336.5 351C348.374 351 358 341.374 358 329.5C358 317.626 348.374 308 336.5 308C324.626 308 315 317.626 315 329.5C315 341.374 324.626 351 336.5 351ZM433 329.5C433 341.374 423.374 351 411.5 351C399.626 351 390 341.374 390 329.5C390 317.626 399.626 308 411.5 308C423.374 308 433 317.626 433 329.5ZM186.5 426C198.374 426 208 416.374 208 404.5C208 392.626 198.374 383 186.5 383C174.626 383 165 392.626 165 404.5C165 416.374 174.626 426 186.5 426ZM283 404.5C283 416.374 273.374 426 261.5 426C249.626 426 240 416.374 240 404.5C240 392.626 249.626 383 261.5 383C273.374 383 283 392.626 283 404.5ZM336.5 426C348.374 426 358 416.374 358 404.5C358 392.626 348.374 383 336.5 383C324.626 383 315 392.626 315 404.5C315 416.374 324.626 426 336.5 426ZM433 404.5C433 416.374 423.374 426 411.5 426C399.626 426 390 416.374 390 404.5C390 392.626 399.626 383 411.5 383C423.374 383 433 392.626 433 404.5Z"
        fill="white"/>
  <path opacity="0.08" fill-rule="evenodd" clip-rule="evenodd"
        d="M375 718.5C375 730.374 365.374 740 353.5 740C341.626 740 332 730.374 332 718.5C332 706.626 341.626 697 353.5 697C365.374 697 375 706.626 375 718.5ZM450 718.5C450 730.374 440.374 740 428.5 740C416.626 740 407 730.374 407 718.5C407 706.626 416.626 697 428.5 697C440.374 697 450 706.626 450 718.5ZM503.5 740C515.374 740 525 730.374 525 718.5C525 706.626 515.374 697 503.5 697C491.626 697 482 706.626 482 718.5C482 730.374 491.626 740 503.5 740ZM600 718.5C600 730.374 590.374 740 578.5 740C566.626 740 557 730.374 557 718.5C557 706.626 566.626 697 578.5 697C590.374 697 600 706.626 600 718.5ZM353.5 815C365.374 815 375 805.374 375 793.5C375 781.626 365.374 772 353.5 772C341.626 772 332 781.626 332 793.5C332 805.374 341.626 815 353.5 815ZM450 793.5C450 805.374 440.374 815 428.5 815C416.626 815 407 805.374 407 793.5C407 781.626 416.626 772 428.5 772C440.374 772 450 781.626 450 793.5ZM503.5 815C515.374 815 525 805.374 525 793.5C525 781.626 515.374 772 503.5 772C491.626 772 482 781.626 482 793.5C482 805.374 491.626 815 503.5 815ZM600 793.5C600 805.374 590.374 815 578.5 815C566.626 815 557 805.374 557 793.5C557 781.626 566.626 772 578.5 772C590.374 772 600 781.626 600 793.5ZM353.5 890C365.374 890 375 880.374 375 868.5C375 856.626 365.374 847 353.5 847C341.626 847 332 856.626 332 868.5C332 880.374 341.626 890 353.5 890ZM450 868.5C450 880.374 440.374 890 428.5 890C416.626 890 407 880.374 407 868.5C407 856.626 416.626 847 428.5 847C440.374 847 450 856.626 450 868.5ZM503.5 890C515.374 890 525 880.374 525 868.5C525 856.626 515.374 847 503.5 847C491.626 847 482 856.626 482 868.5C482 880.374 491.626 890 503.5 890ZM600 868.5C600 880.374 590.374 890 578.5 890C566.626 890 557 880.374 557 868.5C557 856.626 566.626 847 578.5 847C590.374 847 600 856.626 600 868.5ZM353.5 965C365.374 965 375 955.374 375 943.5C375 931.626 365.374 922 353.5 922C341.626 922 332 931.626 332 943.5C332 955.374 341.626 965 353.5 965ZM450 943.5C450 955.374 440.374 965 428.5 965C416.626 965 407 955.374 407 943.5C407 931.626 416.626 922 428.5 922C440.374 922 450 931.626 450 943.5ZM503.5 965C515.374 965 525 955.374 525 943.5C525 931.626 515.374 922 503.5 922C491.626 922 482 931.626 482 943.5C482 955.374 491.626 965 503.5 965ZM600 943.5C600 955.374 590.374 965 578.5 965C566.626 965 557 955.374 557 943.5C557 931.626 566.626 922 578.5 922C590.374 922 600 931.626 600 943.5Z"
        fill="white"/>
  <path opacity="0.03" fill-rule="evenodd" clip-rule="evenodd"
        d="M1016 474.5C1016 486.374 1006.37 496 994.5 496C982.626 496 973 486.374 973 474.5C973 462.626 982.626 453 994.5 453C1006.37 453 1016 462.626 1016 474.5ZM1083 474.5C1083 486.374 1073.37 496 1061.5 496C1049.63 496 1040 486.374 1040 474.5C1040 462.626 1049.63 453 1061.5 453C1073.37 453 1083 462.626 1083 474.5ZM1128.5 496C1140.37 496 1150 486.374 1150 474.5C1150 462.626 1140.37 453 1128.5 453C1116.63 453 1107 462.626 1107 474.5C1107 486.374 1116.63 496 1128.5 496ZM1217 474.5C1217 486.374 1207.37 496 1195.5 496C1183.63 496 1174 486.374 1174 474.5C1174 462.626 1183.63 453 1195.5 453C1207.37 453 1217 462.626 1217 474.5ZM994.5 563C1006.37 563 1016 553.374 1016 541.5C1016 529.626 1006.37 520 994.5 520C982.626 520 973 529.626 973 541.5C973 553.374 982.626 563 994.5 563ZM1083 541.5C1083 553.374 1073.37 563 1061.5 563C1049.63 563 1040 553.374 1040 541.5C1040 529.626 1049.63 520 1061.5 520C1073.37 520 1083 529.626 1083 541.5ZM1128.5 563C1140.37 563 1150 553.374 1150 541.5C1150 529.626 1140.37 520 1128.5 520C1116.63 520 1107 529.626 1107 541.5C1107 553.374 1116.63 563 1128.5 563ZM1217 541.5C1217 553.374 1207.37 563 1195.5 563C1183.63 563 1174 553.374 1174 541.5C1174 529.626 1183.63 520 1195.5 520C1207.37 520 1217 529.626 1217 541.5ZM994.5 630C1006.37 630 1016 620.374 1016 608.5C1016 596.626 1006.37 587 994.5 587C982.626 587 973 596.626 973 608.5C973 620.374 982.626 630 994.5 630ZM1083 608.5C1083 620.374 1073.37 630 1061.5 630C1049.63 630 1040 620.374 1040 608.5C1040 596.626 1049.63 587 1061.5 587C1073.37 587 1083 596.626 1083 608.5ZM1128.5 630C1140.37 630 1150 620.374 1150 608.5C1150 596.626 1140.37 587 1128.5 587C1116.63 587 1107 596.626 1107 608.5C1107 620.374 1116.63 630 1128.5 630ZM1217 608.5C1217 620.374 1207.37 630 1195.5 630C1183.63 630 1174 620.374 1174 608.5C1174 596.626 1183.63 587 1195.5 587C1207.37 587 1217 596.626 1217 608.5ZM994.5 697C1006.37 697 1016 687.374 1016 675.5C1016 663.626 1006.37 654 994.5 654C982.626 654 973 663.626 973 675.5C973 687.374 982.626 697 994.5 697ZM1083 675.5C1083 687.374 1073.37 697 1061.5 697C1049.63 697 1040 687.374 1040 675.5C1040 663.626 1049.63 654 1061.5 654C1073.37 654 1083 663.626 1083 675.5ZM1128.5 697C1140.37 697 1150 687.374 1150 675.5C1150 663.626 1140.37 654 1128.5 654C1116.63 654 1107 663.626 1107 675.5C1107 687.374 1116.63 697 1128.5 697ZM1217 675.5C1217 687.374 1207.37 697 1195.5 697C1183.63 697 1174 687.374 1174 675.5C1174 663.626 1183.63 654 1195.5 654C1207.37 654 1217 663.626 1217 675.5Z"
        fill="white"/>
  <path opacity="0.04" fill-rule="evenodd" clip-rule="evenodd"
        d="M1646 742.5C1646 754.374 1636.37 764 1624.5 764C1612.63 764 1603 754.374 1603 742.5C1603 730.626 1612.63 721 1624.5 721C1636.37 721 1646 730.626 1646 742.5ZM1713 742.5C1713 754.374 1703.37 764 1691.5 764C1679.63 764 1670 754.374 1670 742.5C1670 730.626 1679.63 721 1691.5 721C1703.37 721 1713 730.626 1713 742.5ZM1758.5 764C1770.37 764 1780 754.374 1780 742.5C1780 730.626 1770.37 721 1758.5 721C1746.63 721 1737 730.626 1737 742.5C1737 754.374 1746.63 764 1758.5 764ZM1847 742.5C1847 754.374 1837.37 764 1825.5 764C1813.63 764 1804 754.374 1804 742.5C1804 730.626 1813.63 721 1825.5 721C1837.37 721 1847 730.626 1847 742.5ZM1624.5 831C1636.37 831 1646 821.374 1646 809.5C1646 797.626 1636.37 788 1624.5 788C1612.63 788 1603 797.626 1603 809.5C1603 821.374 1612.63 831 1624.5 831ZM1713 809.5C1713 821.374 1703.37 831 1691.5 831C1679.63 831 1670 821.374 1670 809.5C1670 797.626 1679.63 788 1691.5 788C1703.37 788 1713 797.626 1713 809.5ZM1758.5 831C1770.37 831 1780 821.374 1780 809.5C1780 797.626 1770.37 788 1758.5 788C1746.63 788 1737 797.626 1737 809.5C1737 821.374 1746.63 831 1758.5 831ZM1847 809.5C1847 821.374 1837.37 831 1825.5 831C1813.63 831 1804 821.374 1804 809.5C1804 797.626 1813.63 788 1825.5 788C1837.37 788 1847 797.626 1847 809.5ZM1624.5 898C1636.37 898 1646 888.374 1646 876.5C1646 864.626 1636.37 855 1624.5 855C1612.63 855 1603 864.626 1603 876.5C1603 888.374 1612.63 898 1624.5 898ZM1713 876.5C1713 888.374 1703.37 898 1691.5 898C1679.63 898 1670 888.374 1670 876.5C1670 864.626 1679.63 855 1691.5 855C1703.37 855 1713 864.626 1713 876.5ZM1758.5 898C1770.37 898 1780 888.374 1780 876.5C1780 864.626 1770.37 855 1758.5 855C1746.63 855 1737 864.626 1737 876.5C1737 888.374 1746.63 898 1758.5 898ZM1847 876.5C1847 888.374 1837.37 898 1825.5 898C1813.63 898 1804 888.374 1804 876.5C1804 864.626 1813.63 855 1825.5 855C1837.37 855 1847 864.626 1847 876.5ZM1624.5 965C1636.37 965 1646 955.374 1646 943.5C1646 931.626 1636.37 922 1624.5 922C1612.63 922 1603 931.626 1603 943.5C1603 955.374 1612.63 965 1624.5 965ZM1713 943.5C1713 955.374 1703.37 965 1691.5 965C1679.63 965 1670 955.374 1670 943.5C1670 931.626 1679.63 922 1691.5 922C1703.37 922 1713 931.626 1713 943.5ZM1758.5 965C1770.37 965 1780 955.374 1780 943.5C1780 931.626 1770.37 922 1758.5 922C1746.63 922 1737 931.626 1737 943.5C1737 955.374 1746.63 965 1758.5 965ZM1847 943.5C1847 955.374 1837.37 965 1825.5 965C1813.63 965 1804 955.374 1804 943.5C1804 931.626 1813.63 922 1825.5 922C1837.37 922 1847 931.626 1847 943.5Z"
        fill="white"/>
</svg>
