<?xml version="1.0" encoding="utf-8"?>
<!-- Generator: Adobe Illustrator 26.5.0, SVG Export Plug-In . SVG Version: 6.00 Build 0)  -->
<svg version="1.1" id="Layer_1" xmlns="http://www.w3.org/2000/svg" xmlns:xlink="http://www.w3.org/1999/xlink" x="0px" y="0px"
	 viewBox="0 0 28 35" style="enable-background:new 0 0 28 35;" xml:space="preserve">
<style type="text/css">
	.st0{filter:url(#Adobe_OpacityMaskFilter);}
	.st1{fill-rule:evenodd;clip-rule:evenodd;fill:#FFFFFF;}
	.st2{mask:url(#mask-3_00000003068177609555636610000002556513777906680240_);fill-rule:evenodd;clip-rule:evenodd;fill:#0F3557;}
</style>
<g id="May-2021-Updates">
	<g id="Group-3" transform="translate(-1062.000000, -1297.000000)">
		<g transform="translate(1062.200000, 1297.242145)">
			<g id="Clip-2">
			</g>
			<defs>
				<filter id="Adobe_OpacityMaskFilter" filterUnits="userSpaceOnUse" x="0" y="0" width="27" height="34.5">
					<feColorMatrix  type="matrix" values="1 0 0 0 0  0 1 0 0 0  0 0 1 0 0  0 0 0 1 0"/>
				</filter>
			</defs>
			
				<mask maskUnits="userSpaceOnUse" x="0" y="0" width="27" height="34.5" id="mask-3_00000003068177609555636610000002556513777906680240_">
				<g class="st0">
					<polygon id="path-2_00000034789180211806962750000013683811410351728265_" class="st1" points="0,0 27,0 27,34.5 0,34.5 					
						"/>
				</g>
			</mask>
			<path id="Fill-1" class="st2" d="M12.1,27.7c-1.9-1.8-4-2.8-5.8-3.6c-2.9-1.4-4.4-2.2-4.4-4.3c0-2.2,1.1-2.5,3.2-2.7
				c1.6-0.2,3.1-0.5,3.1-2.3c0-1.6-1-2.5-2-3.2c-1-0.8-1.8-1.4-1.8-3c0-1,0.4-1.3,0.5-1.4c0.8-0.7,2.6-0.4,3.6-0.2
				c1,0.2,1.4,0.2,1.9-0.2C11.2,6,11.5,5,11.9,4c0.5-1.5,0.9-2.1,1.7-2.1c0.8,0,1,0.6,1.6,2c0.3,0.9,0.7,2,1.5,2.7
				C17,7.1,17.5,7,18.5,6.9c1.4-0.2,2.9-0.4,3.6,0.2c0.3,0.3,0.5,0.7,0.5,1.4c0,1.6-0.8,2.3-1.8,3c-0.9,0.7-2,1.6-2,3.2
				c0,1.7,1.5,2.1,3.1,2.2c2,0.2,3.2,0.5,3.2,2.8c0,2.1-1.6,3-4.4,4.3h0c-1.7,0.8-3.9,1.9-5.8,3.7l-0.5,0.5v-5.3l4.5-2.2
				c0.2-0.1,0.4-0.3,0.5-0.6c0.1-0.2,0.1-0.5-0.1-0.7c-0.2-0.5-0.8-0.7-1.3-0.4l-3.6,1.8v-6.3l3.5-2.8c0.2-0.2,0.3-0.4,0.3-0.7
				c0-0.3-0.1-0.5-0.3-0.7c-0.4-0.4-1-0.4-1.4,0L14.5,12V8.5c0-0.5-0.4-1-1-1c-0.5,0-1,0.4-1,1V12l-2.1-1.7c-0.4-0.4-1-0.4-1.4,0
				c-0.2,0.2-0.3,0.4-0.3,0.7c0,0.3,0.1,0.5,0.3,0.7l3.5,2.7v6.3l-3.6-1.8c-0.5-0.2-1.1,0-1.3,0.4c-0.1,0.2-0.1,0.5-0.1,0.7
				c0.1,0.2,0.3,0.4,0.5,0.6l4.5,2.2v5.3L12.1,27.7z M13.5,34.5c0.5,0,1-0.4,1-1v-2.1l0-0.1c1.9-3,4.8-4.4,7.1-5.5
				c2.7-1.3,5.4-2.6,5.4-6c0-4.1-3-4.5-4.9-4.7h0c-0.4,0-0.9-0.1-1.2-0.2l-0.2-0.1l0-0.2c0.1-0.6,0.5-0.9,1.2-1.5
				c1.1-0.9,2.5-2,2.5-4.6c0-1.3-0.4-2.2-1.2-2.9c-1.5-1.2-3.7-0.9-5.5-0.6l-0.2,0l-0.1-0.2c-0.3-0.4-0.5-1-0.7-1.5
				C16.4,1.9,15.7,0,13.5,0c-2.2,0-3,1.9-3.5,3.4C9.9,3.9,9.7,4.5,9.4,4.9L9.3,5L8.9,5C8.3,4.9,7.5,4.7,6.6,4.7
				c-1,0-2.1,0.2-2.9,0.9C2.9,6.3,2.5,7.2,2.5,8.5C2.5,11,4,12.2,5,13.1c0.8,0.6,1.2,1,1.2,1.5l0,0.2l-0.2,0.1
				C5.8,15,5.3,15,4.9,15.1C3,15.3,0,15.7,0,19.8c0,3.4,2.8,4.7,5.5,6c2.3,1.1,5.1,2.5,7,5.4l0,0.1v2.3C12.5,34.1,13,34.5,13.5,34.5
				L13.5,34.5z"/>
		</g>
	</g>
</g>
</svg>
