<?xml version="1.0" encoding="utf-8"?>
<!-- Generator: Adobe Illustrator 26.5.0, SVG Export Plug-In . SVG Version: 6.00 Build 0)  -->
<svg version="1.1" id="Layer_1" xmlns="http://www.w3.org/2000/svg" xmlns:xlink="http://www.w3.org/1999/xlink" x="0px" y="0px"
	 viewBox="0 0 28 35" style="enable-background:new 0 0 28 35;" xml:space="preserve">
<style type="text/css">
	.st0{filter:url(#Adobe_OpacityMaskFilter);}
	.st1{fill-rule:evenodd;clip-rule:evenodd;fill:#FFFFFF;}
	.st2{mask:url(#mask-2_00000074434388014318078240000012128151584514581408_);fill-rule:evenodd;clip-rule:evenodd;fill:#0F3557;}
</style>
<g id="May-2021-Updates">
	<g id="About---Who-We-Are" transform="translate(-394.000000, -1297.000000)">
		<g id="Group-3" transform="translate(394.242734, 1297.681048)">
			<g id="Clip-2">
			</g>
			<defs>
				<filter id="Adobe_OpacityMaskFilter" filterUnits="userSpaceOnUse" x="0" y="0" width="27" height="33.6">
					<feColorMatrix  type="matrix" values="1 0 0 0 0  0 1 0 0 0  0 0 1 0 0  0 0 0 1 0"/>
				</filter>
			</defs>
			
				<mask maskUnits="userSpaceOnUse" x="0" y="0" width="27" height="33.6" id="mask-2_00000074434388014318078240000012128151584514581408_">
				<g class="st0">
					<polygon id="path-1_00000160185963343258298140000009859578465051672967_" class="st1" points="0,0 27,0 27,33.6 0,33.6 					
						"/>
				</g>
			</mask>
			<path id="Fill-1" class="st2" d="M23.3,17.7l-1-1.3h2L23.3,17.7z M18.3,20.1L13.6,24l-4.7-3.9l1.8-3.8h5.9L18.3,20.1z M23.9,31.8
				h-0.5c-0.1,0-0.3,0-0.4-0.1l-8-6.5l4.1-3.3L23.9,31.8z M4.1,31.7c-0.1,0.1-0.2,0.1-0.4,0.1H3.3l4.8-10l4.1,3.3L4.1,31.7z
				 M3.8,17.7l-1-1.3h2L3.8,17.7z M11,14.6h5.1V7.9H11V14.6z M3.8,9.2l-1-1.3h2L3.8,9.2z M13.6,2.6l1.9,3.5h-3.8L13.6,2.6z
				 M23.3,9.2l-1-1.3h2L23.3,9.2z M26.8,14.9C26.7,14.8,26.7,14.8,26.8,14.9C26.7,14.8,26.7,14.8,26.8,14.9
				c-0.1-0.1-0.2-0.2-0.2-0.2c0,0-0.1,0-0.1-0.1c-0.1,0-0.1,0-0.2,0c0,0-0.1,0-0.1,0h-8.2V7.9h2l2.1,2.7c0.3,0.4,0.7,0.6,1.2,0.6h0
				c0.5,0,0.9-0.2,1.2-0.6l2.4-3.1c0-0.1,0.1-0.1,0.1-0.2c0,0,0,0,0,0c0.1-0.3,0.1-0.7-0.2-1c0,0,0,0,0,0c0,0,0,0-0.1-0.1
				c0,0-0.1-0.1-0.2-0.1c0,0-0.1,0-0.1-0.1c-0.1,0-0.1,0-0.2,0c0,0-0.1,0-0.1,0h-8.6l-3-5.5C14.3,0.2,14,0,13.6,0h0
				c-0.4,0-0.7,0.2-0.9,0.6l-3,5.5H0.9c0,0-0.1,0-0.1,0c-0.1,0-0.1,0-0.2,0c0,0-0.1,0-0.1,0c-0.1,0-0.1,0-0.2,0.1c0,0,0,0-0.1,0.1
				c0,0,0,0,0,0C0,6.6-0.1,7,0.1,7.3l0,0c0,0.1,0.1,0.1,0.1,0.2l2.4,3c0.3,0.4,0.7,0.6,1.2,0.6s0.9-0.2,1.2-0.6l2.1-2.7h2.2v6.7H0.9
				c0,0-0.1,0-0.1,0c-0.1,0-0.1,0-0.2,0c0,0-0.1,0-0.1,0c-0.1,0-0.1,0-0.2,0.1c0,0,0,0-0.1,0.1c0,0,0,0,0,0c-0.3,0.3-0.3,0.6-0.2,1
				c0,0,0,0,0,0c0,0.1,0.1,0.1,0.1,0.2l2.4,3c0.3,0.4,0.7,0.6,1.2,0.6c0.5,0,0.9-0.2,1.2-0.6l2.1-2.7h1.6L1.6,31.3
				c-0.2,0.5-0.2,1.1,0.1,1.6s0.8,0.8,1.4,0.8h0.7c0.6,0,1.1-0.2,1.5-0.6l8.3-6.8l8.3,6.8c0.4,0.4,1,0.6,1.5,0.6h0.7
				c0.6,0,1.1-0.3,1.4-0.8c0.3-0.5,0.3-1.1,0.1-1.6l-7.1-14.9h1.4L22,19c0.3,0.4,0.7,0.6,1.2,0.6h0c0.5,0,0.9-0.2,1.2-0.6l2.4-3.1
				c0-0.1,0.1-0.1,0.1-0.2c0,0,0,0,0,0C27.1,15.5,27,15.1,26.8,14.9L26.8,14.9z"/>
		</g>
	</g>
</g>
</svg>
