<?xml version="1.0" encoding="utf-8"?>
<!-- Generator: Adobe Illustrator 27.0.1, SVG Export Plug-In . SVG Version: 6.00 Build 0)  -->
<svg version="1.1" id="Layer_1" xmlns="http://www.w3.org/2000/svg" xmlns:xlink="http://www.w3.org/1999/xlink" x="0px" y="0px"
	 viewBox="0 0 48 48" style="enable-background:new 0 0 48 48;" xml:space="preserve">
<style type="text/css">
	.st0{fill:none;stroke:#0F3557;stroke-width:2;stroke-linecap:round;stroke-linejoin:round;stroke-miterlimit:8;}
</style>
<path class="st0" d="M2,46.5c0-3.3,2.7-6,6-6s6,2.7,6,6H2z"/>
<path class="st0" d="M18,46.5c0-3.3,2.7-6,6-6s6,2.7,6,6H18z"/>
<path class="st0" d="M34,46.5c0-3.3,2.7-6,6-6s6,2.7,6,6H34z"/>
<circle class="st0" cx="8" cy="33.5" r="4"/>
<circle class="st0" cx="24" cy="33.5" r="4"/>
<circle class="st0" cx="40" cy="33.5" r="4"/>
<path class="st0" d="M28,4.5h-6c-1.3,0-2,0.4-2,2c0,2.6,8,5.4,8,8c0.1,1-0.5,1.9-1.5,2c-0.2,0-0.4,0-0.5,0h-6"/>
<line class="st0" x1="24" y1="4.5" x2="24" y2="1.5"/>
<line class="st0" x1="24" y1="19.5" x2="24" y2="16.5"/>
<polyline class="st0" points="8,26.5 8,24.5 40,24.5 40,26.5 "/>
<line class="st0" x1="24" y1="24.5" x2="24" y2="26.5"/>
</svg>
