<?xml version="1.0" encoding="utf-8"?>
<!-- Generator: Adobe Illustrator 26.5.0, SVG Export Plug-In . SVG Version: 6.00 Build 0)  -->
<svg version="1.1" id="Layer_1" xmlns="http://www.w3.org/2000/svg" xmlns:xlink="http://www.w3.org/1999/xlink" x="0px" y="0px"
	 viewBox="0 0 35 34" style="enable-background:new 0 0 35 34;" xml:space="preserve">
<style type="text/css">
	.st0{filter:url(#Adobe_OpacityMaskFilter);}
	.st1{fill-rule:evenodd;clip-rule:evenodd;fill:#FFFFFF;}
	.st2{mask:url(#mask-2_00000039840271042018039990000015223081113157822886_);fill-rule:evenodd;clip-rule:evenodd;fill:#0F3557;}
	.st3{filter:url(#Adobe_OpacityMaskFilter_00000118371901783853223740000008941475937665457829_);}
	.st4{mask:url(#mask-4_00000069388314415907258090000006175513173355965332_);fill-rule:evenodd;clip-rule:evenodd;fill:#0F3557;}
</style>
<g id="Page-1">
	<g id="About---Overview-Copy-16" transform="translate(-838.000000, -1298.000000)">
		<g id="Group-7" transform="translate(838.750000, 1297.144748)">
			<g id="Group-3" transform="translate(31.384615, 0.916486)">
				<g id="Clip-2">
				</g>
				<defs>
					<filter id="Adobe_OpacityMaskFilter" filterUnits="userSpaceOnUse" x="0.1" y="0.4" width="2.1" height="23.5">
						<feColorMatrix  type="matrix" values="1 0 0 0 0  0 1 0 0 0  0 0 1 0 0  0 0 0 1 0"/>
					</filter>
				</defs>
				
					<mask maskUnits="userSpaceOnUse" x="0.1" y="0.4" width="2.1" height="23.5" id="mask-2_00000039840271042018039990000015223081113157822886_">
					<g class="st0">
						<polygon id="path-1_00000091013070991027863760000012753215487898174355_" class="st1" points="0.1,0.4 2.2,0.4 2.2,23.9 
							0.1,23.9 						"/>
					</g>
				</mask>
				<path id="Fill-1" class="st2" d="M1.2,0.4c-0.6,0-1,0.5-1,1v21.5c0,0.6,0.5,1,1,1c0.6,0,1.1-0.5,1.1-1V1.4
					C2.2,0.8,1.8,0.4,1.2,0.4"/>
			</g>
			<g id="Group-6" transform="translate(0.000000, 6.058783)">
				<g id="Clip-5">
				</g>
				<defs>
					
						<filter id="Adobe_OpacityMaskFilter_00000090290769628068115520000000828607285046639017_" filterUnits="userSpaceOnUse" x="0" y="0" width="33.6" height="28.3">
						<feColorMatrix  type="matrix" values="1 0 0 0 0  0 1 0 0 0  0 0 1 0 0  0 0 0 1 0"/>
					</filter>
				</defs>
				
					<mask maskUnits="userSpaceOnUse" x="0" y="0" width="33.6" height="28.3" id="mask-4_00000069388314415907258090000006175513173355965332_">
					<g style="filter:url(#Adobe_OpacityMaskFilter_00000090290769628068115520000000828607285046639017_);">
						<polygon id="path-3_00000176748508051714668970000012576542327071643306_" class="st1" points="0,0 33.6,0 33.6,28.3 0,28.3 
													"/>
					</g>
				</mask>
				<path id="Fill-4" class="st4" d="M1.1,26.2c-0.6,0-1.1,0.5-1.1,1c0,0.6,0.5,1,1.1,1h31.5c0.6,0,1.1-0.5,1.1-1v-4.8
					c0-0.6-0.5-1-1.1-1c-0.6,0-1,0.5-1,1v3.7h-2.8V5.8c0-0.6-0.5-1-1.1-1c-0.6,0-1,0.5-1,1v20.4h-2.8V12.9c0-0.6-0.5-1-1.1-1
					c-0.6,0-1,0.5-1,1v13.3h-2.8V1c0-0.6-0.5-1-1.1-1c-0.6,0-1,0.5-1,1v25.2h-2.8V5.8c0-0.6-0.5-1-1.1-1c-0.6,0-1,0.5-1,1v20.4H9.4
					V12.9c0-0.6-0.5-1-1.1-1c-0.6,0-1.1,0.5-1.1,1v13.3H1.1z"/>
			</g>
		</g>
	</g>
</g>
</svg>
