<?xml version="1.0" encoding="utf-8"?>
<!-- Generator: Adobe Illustrator 26.5.0, SVG Export Plug-In . SVG Version: 6.00 Build 0)  -->
<svg version="1.1" id="Layer_1" xmlns="http://www.w3.org/2000/svg" xmlns:xlink="http://www.w3.org/1999/xlink" x="0px" y="0px"
	 viewBox="0 0 36 35" style="enable-background:new 0 0 36 35;" xml:space="preserve">
<style type="text/css">
	.st0{fill-rule:evenodd;clip-rule:evenodd;fill:#0F3557;}
	.st1{fill:#0F3557;}
</style>
<g>
	<path class="st0" d="M17.7,10.5C12.5,12.7,7.3,15,2.2,17.2v15.7h15.5V10.5z M1.4,34.5c-0.4,0-0.8-0.3-0.8-0.8v-17
		c0-0.3,0.2-0.6,0.6-0.7l12.6-5.5V5.3c0-0.3,0.2-0.6,0.5-0.7L24,0.3c0.3-0.1,0.7-0.1,1,0l9.8,4.3c0.3,0.1,0.5,0.4,0.5,0.7v28.3
		c0,0.5-0.4,0.9-0.9,0.9H1.4z M18.8,8.6l8.5,3.2c0.3,0.1,0.6,0.4,0.6,0.7v20.4h6V5.8l-9.3-4.1l-9.2,4.1v4.1l2.9-1.2
		C18.3,8.5,18.6,8.5,18.8,8.6z M26.3,13l-7-2.6v22.5h7V13z M4,31.8c-1,0-1-1.5,0-1.5h10.4c1,0,1,1.5,0,1.5H4z M4.1,27.9
		c-1,0.1-1.2-1.4-0.2-1.5l10.5-1.2c1-0.1,1.2,1.4,0.2,1.5L4.1,27.9z M4.1,24.1c-1,0.2-1.2-1.4-0.3-1.5l10.5-1.9
		c1-0.2,1.2,1.4,0.3,1.5L4.1,24.1z M4.2,20.2c-1,0.3-1.4-1.2-0.4-1.5l10.5-2.9c1-0.3,1.4,1.2,0.4,1.5L4.2,20.2z M30,26.6
		c0-1,1.6-1,1.6,0v3.3c0,1-1.6,1-1.6,0V26.6z M30,20.4c0-1,1.6-1,1.6,0v3.3c0,1-1.6,1-1.6,0V20.4z M30,14.4c0-1,1.6-1,1.6,0v3.3
		c0,1-1.6,1-1.6,0V14.4z M30,8.2c0-1,1.6-1,1.6,0v3.3c0,1-1.6,1-1.6,0V8.2z"/>
	<path class="st1" d="M17.7,10.5L17.7,10.5c-5.2,2.2-10.4,4.5-15.6,6.7l0,0V33h15.7L17.7,10.5L17.7,10.5L17.7,10.5L17.7,10.5
		l-0.1,22.4H2.2V17.2H2.2l0,0.1C7.4,15,12.5,12.8,17.7,10.5L17.7,10.5L17.7,10.5L17.7,10.5z M1.4,34.5L1.4,34.5
		c-0.4-0.1-0.7-0.4-0.7-0.8l0-17c0-0.3,0.2-0.6,0.5-0.7l0,0l12.6-5.5V5.3c0-0.3,0.2-0.6,0.4-0.7L24,0.4c0.1-0.1,0.3-0.1,0.5-0.1
		c0.2,0,0.3,0,0.5,0.1l9.8,4.3C35,4.7,35.2,5,35.2,5.3v28.3c0,0.5-0.4,0.8-0.8,0.8L1.4,34.5L1.4,34.5L1.4,34.5l33,0.1
		c0.5,0,1-0.4,1-1V5.3c0-0.3-0.2-0.7-0.5-0.8L25,0.3l0,0c-0.2-0.1-0.3-0.1-0.5-0.1c-0.2,0-0.4,0-0.5,0.1l-9.8,4.3
		c-0.3,0.1-0.5,0.4-0.5,0.8v5.2L1.1,15.9l0,0.1l0-0.1c-0.4,0.1-0.6,0.4-0.6,0.8l0,17C0.5,34.2,0.9,34.6,1.4,34.5L1.4,34.5z
		 M18.8,8.6L18.8,8.6l8.4,3.3l0,0c0.3,0,0.5,0.4,0.5,0.7V33h6.1V5.8l-9.4-4.1l-9.3,4.1v4.2l3-1.3l0,0c0.1-0.1,0.3-0.1,0.4-0.1
		C18.6,8.6,18.7,8.6,18.8,8.6L18.8,8.6L18.8,8.6L18.8,8.6L18.8,8.6c-0.1-0.1-0.2-0.1-0.3-0.1c-0.1,0-0.3,0-0.4,0.1l0,0.1l0-0.1
		l-2.8,1.2V5.8l9.2-4l9.2,4v27.1h-5.9l0-20.4c0-0.4-0.2-0.7-0.6-0.8l0,0.1l0-0.1L18.8,8.6L18.8,8.6L18.8,8.6z M26.3,13L26.3,13
		l-7.1-2.7V33h7.2L26.3,13L26.3,13L26.3,13L26.3,13l-0.1,19.9h-6.9V10.5L26.3,13L26.3,13L26.3,13L26.3,13z M4,31.8L4,31.8
		c-0.5-0.1-0.7-0.4-0.7-0.8c0-0.4,0.2-0.7,0.7-0.7h10.4c0.5,0,0.7,0.3,0.7,0.7c0,0.4-0.2,0.7-0.7,0.7L4,31.8L4,31.8L4,31.8l10.4,0.1
		c0.3,0,0.5-0.1,0.6-0.3c0.1-0.2,0.2-0.4,0.2-0.6c0-0.2-0.1-0.4-0.2-0.6c-0.1-0.2-0.3-0.3-0.6-0.3H4c-0.3,0-0.5,0.1-0.6,0.3
		c-0.1,0.2-0.2,0.4-0.2,0.6c0,0.2,0.1,0.4,0.2,0.6C3.5,31.8,3.7,31.9,4,31.8L4,31.8z M4.1,27.9L4.1,27.9L4,27.9
		c-0.4,0-0.7-0.4-0.7-0.7c0-0.3,0.2-0.6,0.6-0.7l0,0l10.5-1.2l0,0l0.1,0c0.4,0,0.7,0.4,0.7,0.7c0,0.3-0.2,0.6-0.6,0.7l0,0L4.1,27.9
		L4.1,27.9L4.1,27.9L4.1,27.9l10.5-1.2l0,0c0.5-0.1,0.7-0.4,0.7-0.8c0-0.4-0.3-0.8-0.8-0.8l-0.1,0l0,0L3.9,26.4l0,0
		c-0.5,0.1-0.7,0.4-0.7,0.8C3.2,27.6,3.4,28,4,28L4.1,27.9L4.1,27.9L4.1,27.9L4.1,27.9z M4.1,24.1L4.1,24.1l-0.2,0
		c-0.4,0-0.7-0.4-0.7-0.7c0-0.3,0.2-0.6,0.6-0.7l10.5-1.9l0-0.1l0,0.1l0.1,0c0.4,0,0.7,0.4,0.7,0.7c0,0.3-0.2,0.6-0.6,0.7L4.1,24.1
		L4.1,24.1L4.1,24.1L4.1,24.1l10.5-1.8l0,0c0.4-0.1,0.7-0.4,0.7-0.8c0-0.4-0.3-0.9-0.8-0.9l-0.2,0l0,0L3.8,22.5l0,0
		c-0.4,0.1-0.7,0.4-0.7,0.8c0,0.4,0.3,0.8,0.8,0.9L4.1,24.1L4.1,24.1L4.1,24.1L4.1,24.1z M4.2,20.2L4.2,20.2l-0.2,0
		c-0.4,0-0.7-0.4-0.7-0.8c0-0.3,0.2-0.6,0.5-0.7l0-0.1l0,0.1l10.5-2.9l0,0l0.2,0c0.4,0,0.6,0.4,0.7,0.7c0,0.3-0.1,0.6-0.5,0.7l0,0
		L4.2,20.2L4.2,20.2L4.2,20.2L4.2,20.2l10.5-2.9l0,0c0.4-0.1,0.6-0.5,0.6-0.8c0-0.4-0.3-0.8-0.8-0.8l-0.3,0l0,0.1l0-0.1L3.8,18.6
		l0,0c-0.4,0.1-0.6,0.5-0.6,0.8c0,0.4,0.3,0.9,0.8,0.9L4.2,20.2L4.2,20.2L4.2,20.2z M30,26.6L30,26.6c0.1-0.5,0.4-0.7,0.8-0.7
		c0.4,0,0.7,0.2,0.7,0.7v3.3c0,0.5-0.4,0.7-0.7,0.7c-0.4,0-0.7-0.2-0.7-0.7L30,26.6L30,26.6L30,26.6l-0.1,3.3c0,0.5,0.4,0.8,0.8,0.8
		c0.4,0,0.8-0.3,0.8-0.8v-3.3c0-0.5-0.4-0.8-0.8-0.8C30.4,25.8,29.9,26,30,26.6L30,26.6z M30,20.4L30,20.4c0.1-0.5,0.4-0.7,0.8-0.7
		c0.4,0,0.7,0.2,0.7,0.7v3.3c0,0.5-0.4,0.7-0.7,0.7c-0.4,0-0.7-0.2-0.7-0.7L30,20.4L30,20.4L30,20.4l-0.1,3.3c0,0.5,0.4,0.8,0.8,0.8
		c0.4,0,0.8-0.3,0.8-0.8v-3.3c0-0.5-0.4-0.8-0.8-0.8C30.4,19.6,29.9,19.9,30,20.4L30,20.4z M30,14.4L30,14.4
		c0.1-0.5,0.4-0.7,0.8-0.7c0.4,0,0.7,0.2,0.7,0.7v3.3c0,0.5-0.4,0.7-0.7,0.7c-0.4,0-0.7-0.2-0.7-0.7L30,14.4L30,14.4L30,14.4
		l-0.1,3.3c0,0.5,0.4,0.8,0.8,0.8c0.4,0,0.8-0.3,0.8-0.8v-3.3c0-0.5-0.4-0.8-0.8-0.8C30.4,13.5,29.9,13.8,30,14.4L30,14.4z M30,8.2
		L30,8.2c0.1-0.5,0.4-0.7,0.8-0.7c0.4,0,0.7,0.2,0.7,0.7v3.3c0,0.5-0.4,0.7-0.7,0.7c-0.4,0-0.7-0.2-0.7-0.7L30,8.2L30,8.2L30,8.2
		l-0.1,3.3c0,0.5,0.4,0.8,0.8,0.8c0.4,0,0.8-0.3,0.8-0.8V8.2c0-0.5-0.4-0.8-0.8-0.8C30.4,7.4,29.9,7.7,30,8.2L30,8.2z"/>
</g>
</svg>
